<svg width="258" height="27" viewBox="0 0 258 27" fill="none" xmlns="http://www.w3.org/2000/svg">
<g clip-path="url(#clip0_1_64)">
<path opacity="0.8" d="M10.2339 4.31284V5.10752C10.2339 5.53664 10.1067 5.67968 9.69348 5.67968C6.41942 5.67968 5.35455 6.6174 5.35455 9.87557V10.6385H9.75706C10.1862 10.6385 10.2974 10.7656 10.2974 11.1788V11.9735C10.2974 12.3709 10.1703 12.5139 9.75706 12.5139H5.35455V25.6896C5.35455 26.1187 5.2274 26.23 4.81417 26.23H3.87646C3.47912 26.23 3.33608 26.1028 3.33608 25.6896V12.5139H0.602391C0.173266 12.5139 0.0620117 12.355 0.0620117 11.9735V11.1788C0.0620117 10.7497 0.18916 10.6385 0.602391 10.6385H3.30429V9.87557C3.30429 5.53664 5.06847 3.83603 9.43919 3.77246H9.67759C10.1067 3.77246 10.218 3.89961 10.218 4.31284H10.2339Z" fill="white"/>
<path opacity="0.8" d="M18.3078 10.1777C22.5037 10.1777 25.0149 12.3075 25.0149 15.7723V21.1125C25.0149 24.5773 22.4878 26.6752 18.3078 26.6752C14.1278 26.6752 11.6643 24.5773 11.6643 21.1125V15.7723C11.6643 12.3075 14.1914 10.1777 18.3078 10.1777ZM18.3078 12.0373C15.5105 12.0373 13.6987 13.4359 13.6987 15.7723V21.1125C13.6987 23.417 15.5264 24.8157 18.3078 24.8157C21.0892 24.8157 22.9487 23.417 22.9487 21.1125V15.7723C22.9487 13.4359 21.1527 12.0373 18.3078 12.0373Z" fill="white"/>
<path opacity="0.8" d="M35.266 10.1777C39.4619 10.1777 41.3056 12.4028 41.3056 16.1378V25.7057C41.3056 26.1348 41.1466 26.2461 40.7652 26.2461H39.8275C39.3983 26.2461 39.2871 26.1189 39.2871 25.7057V16.2014C39.2871 13.4677 37.952 12.0691 35.0276 12.0691C33.2952 12.0691 31.9284 12.4028 30.9907 12.7366C30.5933 12.9114 30.5298 13.1657 30.5298 13.4995V25.7057C30.5298 26.1348 30.3708 26.2461 29.9894 26.2461H29.0199C28.6225 26.2461 28.4795 26.1189 28.4795 25.7057V12.8796C28.4795 11.9419 28.7179 11.6082 29.6397 11.2108C30.8317 10.7181 32.5482 10.1777 35.2819 10.1777H35.266Z" fill="white"/>
<path opacity="0.8" d="M50.683 10.1775C52.924 10.1775 54.6882 10.7815 55.4829 11.0517V4.31284C55.4829 3.88372 55.6418 3.77246 56.0233 3.77246H56.961C57.3901 3.77246 57.5014 3.89961 57.5014 4.31284V24.1162C57.5014 25.0857 57.2947 25.3559 56.3093 25.7532C55.1491 26.2459 53.4803 26.6591 51.0486 26.6591C46.6779 26.6591 44.6753 24.4976 44.6753 20.5878V16.2489C44.6753 12.4185 46.5825 10.1775 50.6513 10.1775H50.683ZM51.0486 12.0689C48.0765 12.0689 46.7415 13.5629 46.7415 16.3124V20.5719C46.7415 23.3692 48.2354 24.8314 51.2711 24.8314C52.8128 24.8314 54.0684 24.5612 54.9107 24.2592C55.4193 24.0526 55.4829 23.9254 55.4829 23.4645V12.9907C54.7836 12.7205 53.1783 12.0848 51.0486 12.0848V12.0689Z" fill="white"/>
<path opacity="0.8" d="M66.8783 10.1778C70.3749 10.1778 72.1867 11.481 73.0768 13.4836C73.2834 13.8809 73.1721 14.1193 72.8066 14.2783L72.0437 14.612C71.6146 14.7869 71.5033 14.7074 71.2808 14.3419C70.6451 12.9432 69.5484 12.0373 66.9101 12.0373C64.2718 12.0373 62.9367 12.9432 62.9367 14.6756C62.9367 17.0755 64.8439 17.2822 67.5299 17.5365C70.8358 17.8384 73.4582 18.5377 73.4582 22.0343C73.4582 24.8634 71.4238 26.6752 67.2279 26.6752C63.8903 26.6752 61.6652 25.515 60.6639 22.9085C60.505 22.5429 60.6004 22.3045 60.9977 22.1774L61.7924 21.9072C62.1579 21.78 62.3327 21.8436 62.5235 22.2409C63.2546 24.1482 64.7962 24.8793 67.1644 24.8793C70.0729 24.8793 71.4397 23.878 71.4397 22.1138C71.4397 19.9523 69.6755 19.5867 67.0372 19.3165C63.9698 19.0146 60.9023 18.5854 60.9023 14.7233C60.9023 11.926 62.9049 10.1619 66.8783 10.1619V10.1778Z" fill="white"/>
<path d="M84.0593 10.0505C84.7586 10.0505 84.997 10.2572 84.997 10.9883V12.3233C84.997 13.0226 84.7586 13.261 84.0593 13.261H82.9627C81.7707 13.261 80.8647 13.3882 80.0701 13.6266C79.7999 13.6902 79.7681 13.8332 79.7681 13.9921V25.2924C79.7681 25.9917 79.5615 26.2301 78.8622 26.2301H77.1933C76.494 26.2301 76.2556 25.9917 76.2556 25.2924V12.6889C76.2556 11.7194 76.4622 11.3538 77.4476 10.9565C78.5761 10.5273 80.3879 10.0982 83.0898 10.0505H84.0593Z" fill="white"/>
<path d="M92.8008 10.0505C97.7754 10.0505 99.3012 12.7206 99.3012 16.3126V24.1799C99.3012 25.2447 99.0628 25.5467 98.2046 25.9123C97.0761 26.405 95.2325 26.7069 92.7372 26.7069C87.3652 26.7069 85.9666 24.9428 85.9666 21.7799C85.9666 18.1403 88.0009 16.8847 92.8643 16.8847C94.0564 16.8847 95.2643 17.0119 95.7729 17.0437V16.1854C95.7729 14.2782 95.01 13.1816 92.7372 13.1816C91.2114 13.1816 90.1783 13.6743 89.5426 14.6438C89.1135 15.2795 88.9386 15.3749 88.2393 15.1047L87.0314 14.5802C86.3639 14.2782 86.1573 13.9127 86.5069 13.2133C87.54 11.2426 89.638 10.0505 92.8008 10.0505ZM92.467 19.7615C90.1624 19.7615 89.5585 20.4926 89.5585 21.7323C89.5585 22.972 90.0512 23.7666 92.4193 23.7666C93.961 23.7666 94.9146 23.6395 95.455 23.5282C95.6934 23.4329 95.7887 23.3693 95.7887 23.0991V19.9045C95.153 19.8727 93.659 19.7456 92.4829 19.7456L92.467 19.7615Z" fill="white"/>
<path d="M108.408 10.0504C109.902 10.0504 111.173 10.2888 112.016 10.4477V4.71018C112.016 4.01086 112.222 3.77246 112.922 3.77246H114.591C115.29 3.77246 115.528 4.01086 115.528 4.71018V24.0526C115.528 25.0539 115.29 25.3241 114.32 25.7214C113.112 26.1823 111.412 26.6909 108.646 26.6909C104.117 26.6909 102.051 24.4499 102.051 20.556V16.3919C102.051 12.2914 104.18 10.0504 108.392 10.0504H108.408ZM109.075 13.2768C106.676 13.2768 105.579 14.3416 105.579 16.5032V20.4448C105.579 22.4156 106.771 23.4804 108.98 23.4804C110.077 23.4804 111.014 23.3533 111.777 23.1467C111.984 23.0513 112.016 22.9877 112.016 22.8129V13.6741C111.316 13.5152 110.283 13.2768 109.075 13.2768Z" fill="white"/>
<path d="M122.712 6.44274V6.71293C122.712 8.11156 122.251 8.57247 120.853 8.57247H120.646C119.247 8.57247 118.786 8.11156 118.786 6.71293V6.44274C118.786 5.04411 119.247 4.61499 120.646 4.61499H120.853C122.251 4.61499 122.712 5.04411 122.712 6.44274ZM122.537 11.4174V25.2925C122.537 25.9918 122.299 26.2302 121.6 26.2302H119.931C119.231 26.2302 119.025 25.9918 119.025 25.2925V11.4174C119.025 10.7181 119.231 10.5115 119.931 10.5115H121.6C122.299 10.5115 122.537 10.7181 122.537 11.4174Z" fill="white"/>
<path d="M132.502 10.0505C137.064 10.0505 139.511 12.3551 139.511 16.1219V20.6197C139.511 24.3865 137.048 26.691 132.502 26.691C127.957 26.691 125.509 24.3865 125.509 20.6197V16.1219C125.509 12.3551 128.005 10.0505 132.502 10.0505ZM132.502 13.2451C130.277 13.2451 129.038 14.2782 129.038 16.1378V20.6356C129.038 22.4634 130.277 23.5282 132.502 23.5282C134.728 23.5282 135.999 22.4634 135.999 20.6356V16.1378C135.999 14.2782 134.759 13.2451 132.502 13.2451Z" fill="white"/>
<path d="M148.158 10.0506C151.686 10.0506 153.689 11.3221 154.658 13.2929C155.024 13.9922 154.833 14.3577 154.166 14.6597L152.799 15.2001C152.131 15.5021 151.925 15.4067 151.527 14.771C151.003 13.865 150.192 13.1975 148.253 13.1975C146.314 13.1975 145.392 13.7379 145.392 14.8345C145.392 16.2649 146.6 16.5034 148.953 16.71C152.56 17.0755 155.151 17.902 155.151 21.6052C155.151 24.5773 152.91 26.6752 148.587 26.6752C145.011 26.6752 142.722 25.3719 141.816 23.0038C141.578 22.3681 141.721 21.9707 142.42 21.7323L143.787 21.3032C144.391 21.0966 144.725 21.176 145.027 21.8754C145.52 23.0674 146.6 23.5442 148.46 23.5442C150.621 23.5442 151.686 22.9402 151.686 21.7482C151.686 20.3178 150.494 20.0476 148.047 19.8092C145.075 19.5072 141.912 18.8715 141.912 14.914C141.912 12.0214 143.978 10.0188 148.174 10.0188L148.158 10.0506Z" fill="white"/>
<path d="M162.859 7.77751V10.5112H166.324C167.023 10.5112 167.262 10.7178 167.262 11.4171V12.8158C167.262 13.5151 167.023 13.7535 166.324 13.7535H162.859V19.8566C162.859 22.8287 163.734 23.3532 166.292 23.3532C167.023 23.3532 167.262 23.5598 167.262 24.2909V25.6895C167.262 26.4206 167.023 26.6272 166.292 26.659C161.286 26.8179 159.331 25.2286 159.331 19.9837V13.7535H157.233C156.534 13.7535 156.327 13.5151 156.327 12.8158V11.4171C156.327 10.7178 156.534 10.5112 157.233 10.5112H159.331V7.77751C159.331 7.0782 159.569 6.87158 160.269 6.87158H161.906C162.605 6.87158 162.843 7.0782 162.843 7.77751H162.859Z" fill="white"/>
<path d="M175.653 10.0505C180.628 10.0505 182.154 12.7206 182.154 16.3126V24.1799C182.154 25.2447 181.915 25.5467 181.057 25.9123C179.929 26.405 178.085 26.7069 175.59 26.7069C170.218 26.7069 168.819 24.9428 168.819 21.7799C168.819 18.1403 170.853 16.8847 175.717 16.8847C176.909 16.8847 178.117 17.0119 178.625 17.0437V16.1854C178.625 14.2782 177.863 13.1816 175.59 13.1816C174.064 13.1816 173.031 13.6743 172.395 14.6438C171.966 15.2795 171.791 15.3749 171.092 15.1047L169.884 14.5802C169.216 14.2782 169.01 13.9127 169.359 13.2133C170.393 11.2426 172.49 10.0505 175.653 10.0505ZM175.32 19.7615C173.015 19.7615 172.411 20.4926 172.411 21.7323C172.411 22.972 172.904 23.7666 175.272 23.7666C176.814 23.7666 177.767 23.6395 178.308 23.5282C178.546 23.4329 178.641 23.3693 178.641 23.0991V19.9045C178.006 19.8727 176.512 19.7456 175.335 19.7456L175.32 19.7615Z" fill="white"/>
<path d="M193.136 10.0505C193.836 10.0505 194.074 10.2572 194.074 10.9883V12.3233C194.074 13.0226 193.836 13.261 193.136 13.261H192.04C190.848 13.261 189.942 13.3882 189.147 13.6266C188.877 13.6902 188.845 13.8332 188.845 13.9921V25.2924C188.845 25.9917 188.639 26.2301 187.939 26.2301H186.27C185.571 26.2301 185.333 25.9917 185.333 25.2924V12.6889C185.333 11.7194 185.539 11.3538 186.525 10.9565C187.653 10.5273 189.465 10.0982 192.167 10.0505H193.136Z" fill="white"/>
<path d="M224.987 0.800345C224.294 0.800345 223.731 1.3625 223.731 2.05595C223.731 2.74939 224.294 3.31152 224.987 3.31152L231.011 3.31152C231.704 3.31152 232.266 2.74939 232.266 2.05595C232.266 1.3625 231.704 0.800345 231.011 0.800345L224.987 0.800345Z" fill="white"/>
<path opacity="0.6" d="M225.003 5.346C224.309 5.346 223.747 5.90816 223.747 6.6016C223.747 7.29504 224.309 7.85718 225.003 7.85718L231.027 7.85718C231.72 7.85718 232.282 7.29504 232.282 6.6016C232.282 5.90816 231.72 5.346 231.027 5.346H225.003Z" fill="white"/>
<path opacity="0.7" d="M225.003 9.90752C224.309 9.90752 223.747 10.4697 223.747 11.1631C223.747 11.8566 224.309 12.4187 225.003 12.4187H231.027C231.72 12.4187 232.282 11.8566 232.282 11.1631C232.282 10.4697 231.72 9.90752 231.027 9.90752H225.003Z" fill="white"/>
<path opacity="0.8" d="M225.003 14.4529C224.309 14.4529 223.747 15.0151 223.747 15.7085C223.747 16.402 224.309 16.9641 225.003 16.9641H231.027C231.72 16.9641 232.282 16.402 232.282 15.7085C232.282 15.0151 231.72 14.4529 231.027 14.4529H225.003Z" fill="white"/>
<path opacity="0.9" d="M225.003 19.0147C224.309 19.0147 223.747 19.5769 223.747 20.2703C223.747 20.9637 224.309 21.5259 225.003 21.5259H231.027C231.72 21.5259 232.282 20.9637 232.282 20.2703C232.282 19.5769 231.72 19.0147 231.027 19.0147H225.003Z" fill="white"/>
<path d="M225.003 23.5601C224.309 23.5601 223.747 24.1223 223.747 24.8157C223.747 25.5092 224.309 26.0713 225.003 26.0713H231.027C231.72 26.0713 232.282 25.5092 232.282 24.8157C232.282 24.1223 231.72 23.5601 231.027 23.5601H225.003Z" fill="white"/>
<path opacity="0.6" d="M237.574 5.36187C236.881 5.36187 236.319 5.924 236.319 6.61745C236.319 7.31089 236.881 7.87305 237.574 7.87305L243.598 7.87305C244.292 7.87305 244.854 7.31089 244.854 6.61745C244.854 5.924 244.292 5.36187 243.598 5.36187H237.574Z" fill="white"/>
<path opacity="0.7" d="M237.574 9.90752C236.881 9.90752 236.319 10.4697 236.319 11.1631C236.319 11.8565 236.881 12.4187 237.574 12.4187H243.598C244.292 12.4187 244.854 11.8565 244.854 11.1631C244.854 10.4697 244.292 9.90752 243.598 9.90752H237.574Z" fill="white"/>
<path opacity="0.8" d="M237.574 14.4529C236.881 14.4529 236.319 15.0151 236.319 15.7085C236.319 16.402 236.881 16.9641 237.574 16.9641H243.598C244.292 16.9641 244.854 16.402 244.854 15.7085C244.854 15.0151 244.292 14.4529 243.598 14.4529H237.574Z" fill="white"/>
<path opacity="0.9" d="M237.574 19.0147C236.881 19.0147 236.319 19.5768 236.319 20.2703C236.319 20.9637 236.881 21.5259 237.574 21.5259H243.598C244.292 21.5259 244.854 20.9637 244.854 20.2703C244.854 19.5768 244.292 19.0147 243.598 19.0147H237.574Z" fill="white"/>
<path d="M237.574 23.5601C236.881 23.5601 236.319 24.1222 236.319 24.8157C236.319 25.5091 236.881 26.0713 237.574 26.0713H243.598C244.292 26.0713 244.854 25.5091 244.854 24.8157C244.854 24.1222 244.292 23.5601 243.598 23.5601H237.574Z" fill="white"/>
<path opacity="0.8" d="M250.019 14.4529C249.326 14.4529 248.764 15.0151 248.764 15.7085C248.764 16.402 249.326 16.9641 250.019 16.9641H256.043C256.736 16.9641 257.298 16.402 257.298 15.7085C257.298 15.0151 256.736 14.4529 256.043 14.4529H250.019Z" fill="white"/>
<path opacity="0.9" d="M250.019 18.9986C249.326 18.9986 248.764 19.5607 248.764 20.2542C248.764 20.9476 249.326 21.5098 250.019 21.5098H256.043C256.736 21.5098 257.298 20.9476 257.298 20.2542C257.298 19.5607 256.736 18.9986 256.043 18.9986H250.019Z" fill="white"/>
<path d="M250.035 23.5442C249.342 23.5442 248.78 24.1064 248.78 24.7998C248.78 25.4933 249.342 26.0554 250.035 26.0554H256.059C256.752 26.0554 257.314 25.4933 257.314 24.7998C257.314 24.1064 256.752 23.5442 256.059 23.5442H250.035Z" fill="white"/>
<path opacity="0.7" d="M212.352 9.89165C211.658 9.89165 211.096 10.4538 211.096 11.1472C211.096 11.8407 211.658 12.4028 212.352 12.4028H218.375C219.069 12.4028 219.631 11.8407 219.631 11.1472C219.631 10.4538 219.069 9.89165 218.375 9.89165H212.352Z" fill="white"/>
<path opacity="0.8" d="M212.368 14.4529C211.674 14.4529 211.112 15.0151 211.112 15.7085C211.112 16.402 211.674 16.9641 212.368 16.9641H218.391C219.085 16.9641 219.647 16.402 219.647 15.7085C219.647 15.0151 219.085 14.4529 218.391 14.4529H212.368Z" fill="white"/>
<path opacity="0.9" d="M212.352 18.9986C211.658 18.9986 211.096 19.5607 211.096 20.2542C211.096 20.9476 211.658 21.5098 212.352 21.5098H218.375C219.069 21.5098 219.631 20.9476 219.631 20.2542C219.631 19.5607 219.069 18.9986 218.375 18.9986H212.352Z" fill="white"/>
<path d="M212.368 23.5601C211.674 23.5601 211.112 24.1222 211.112 24.8157C211.112 25.5091 211.674 26.0713 212.368 26.0713H218.391C219.085 26.0713 219.647 25.5091 219.647 24.8157C219.647 24.1222 219.085 23.5601 218.391 23.5601H212.368Z" fill="white"/>
<path opacity="0.9" d="M199.843 18.9986C199.15 18.9986 198.588 19.5607 198.588 20.2542C198.588 20.9476 199.15 21.5098 199.843 21.5098H205.867C206.56 21.5098 207.122 20.9476 207.122 20.2542C207.122 19.5607 206.56 18.9986 205.867 18.9986H199.843Z" fill="white"/>
<path d="M199.859 23.5442C199.166 23.5442 198.604 24.1064 198.604 24.7998C198.604 25.4933 199.166 26.0554 199.859 26.0554H205.883C206.576 26.0554 207.138 25.4933 207.138 24.7998C207.138 24.1064 206.576 23.5442 205.883 23.5442H199.859Z" fill="white"/>
</g>
<defs>
<clipPath id="clip0_1_64">
<rect width="257.237" height="25.8905" fill="white" transform="translate(0.0620117 0.800537)"/>
</clipPath>
</defs>
</svg>
