<svg width="74" height="74" viewBox="0 0 74 74" fill="none" xmlns="http://www.w3.org/2000/svg">
<mask id="mask0_21_10" style="mask-type:luminance" maskUnits="userSpaceOnUse" x="0" y="0" width="74" height="74">
<path d="M73.4916 0H0V73.4916H73.4916V0Z" fill="white"/>
</mask>
<g mask="url(#mask0_21_10)">
<path d="M36.7459 72.5221C37.3657 72.5221 37.9697 72.5221 38.5895 72.4744C39.1935 72.4427 39.7974 72.395 40.4014 72.3314C41.0053 72.2678 41.5934 72.1884 42.1973 72.1089C42.7854 72.0135 43.3734 71.9182 43.9615 71.791C44.5496 71.6639 45.1217 71.5367 45.6939 71.3937C46.2661 71.2506 46.8382 71.0917 47.3945 70.9169C47.9508 70.7421 48.5071 70.5513 49.0633 70.3606C49.6037 70.154 50.1441 69.9474 50.6845 69.7249C51.2248 69.5024 51.7493 69.264 52.2738 69.0097C52.7983 68.7554 53.3069 68.5011 53.8155 68.215C54.3241 67.9448 54.8168 67.6587 55.3095 67.3567C55.8022 67.0548 56.279 66.7528 56.7558 66.419C57.2326 66.1012 57.6935 65.7674 58.1544 65.4177C58.6153 65.0681 59.0603 64.7184 59.5054 64.3529C59.9504 63.9873 60.3795 63.6218 60.8086 63.2244C61.2378 62.843 61.651 62.4456 62.0483 62.0324C62.4616 61.6351 62.843 61.2059 63.2403 60.7927C63.6218 60.3636 64.0032 59.9345 64.3688 59.4895C64.7343 59.0444 65.084 58.5994 65.4336 58.1385C65.7833 57.6776 66.1171 57.2167 66.4349 56.7399C66.7528 56.2631 67.0707 55.7863 67.3727 55.2936C67.6746 54.8009 67.9607 54.3082 68.2309 53.7996C68.5011 53.291 68.7713 52.7824 69.0256 52.2579C69.2799 51.7334 69.5183 51.2089 69.7408 50.6685C69.9633 50.1282 70.1858 49.5878 70.3765 49.0474C70.5831 48.507 70.758 47.9508 70.9328 47.3786C71.1076 46.8223 71.2666 46.2502 71.4096 45.678C71.5527 45.1058 71.6957 44.5337 71.8069 43.9456C71.9182 43.3575 72.0295 42.7695 72.1248 42.1814C72.2202 41.5934 72.2996 40.9894 72.3473 40.3854C72.4109 39.7815 72.4586 39.1775 72.4904 38.5736C72.5222 37.9696 72.538 37.3498 72.538 36.7299C72.538 36.1101 72.538 35.4902 72.4904 34.8863C72.4586 34.2823 72.4109 33.6784 72.3473 33.0744C72.2838 32.4705 72.2202 31.8824 72.1248 31.2785C72.0295 30.6904 71.9341 30.1023 71.8069 29.5143C71.6798 28.9262 71.5527 28.3541 71.4096 27.7819C71.2666 27.2097 71.1076 26.6376 70.9328 26.0813C70.758 25.525 70.5672 24.9687 70.3765 24.4125C70.1699 23.8562 69.9633 23.3158 69.7408 22.7913C69.5183 22.2509 69.2799 21.7265 69.0256 21.202C68.7713 20.6775 68.517 20.1689 68.2309 19.6603C67.9607 19.1517 67.6746 18.659 67.3727 18.1663C67.0707 17.6736 66.7687 17.1968 66.4349 16.72C66.1171 16.2432 65.7833 15.7823 65.4336 15.3214C65.084 14.8605 64.7343 14.4154 64.3688 13.9704C64.0032 13.5254 63.6218 13.0963 63.2403 12.6672C62.8589 12.238 62.4616 11.8248 62.0483 11.4275C61.651 11.0142 61.2378 10.6328 60.8086 10.2354C60.3795 9.85401 59.9504 9.47256 59.5054 9.10701C59.0603 8.74146 58.6153 8.3918 58.1544 8.04214C57.6935 7.70838 57.2326 7.37462 56.7558 7.04085C56.279 6.72298 55.8022 6.40511 55.3095 6.10314C54.8168 5.80116 54.3241 5.51508 53.8155 5.24489C53.3069 4.9747 52.7983 4.70451 52.2738 4.45021C51.7493 4.19591 51.2248 3.95751 50.6845 3.735C50.1441 3.51249 49.6037 3.28998 49.0633 3.09926C48.5071 2.90854 47.9667 2.71782 47.3945 2.54299C46.8382 2.36816 46.2661 2.20923 45.6939 2.06618C45.1217 1.92314 44.5496 1.7801 43.9615 1.66885C43.3734 1.55759 42.7854 1.44634 42.1973 1.35098C41.6093 1.25561 41.0053 1.17615 40.4014 1.12847C39.7974 1.06489 39.1935 1.01721 38.5895 0.985425C37.9855 0.953638 37.3657 0.937744 36.7459 0.937744C36.126 0.937744 35.5062 0.953638 34.9022 0.985425C34.2982 1.01721 33.6784 1.06489 33.0903 1.12847C32.4864 1.19204 31.8983 1.27151 31.2944 1.35098C30.7063 1.44634 30.1183 1.5417 29.5302 1.66885C28.9421 1.79599 28.37 1.92314 27.7978 2.06618C27.2256 2.20923 26.6694 2.36816 26.0972 2.54299C25.5409 2.71782 24.9847 2.90854 24.4284 3.09926C23.888 3.30588 23.3317 3.51249 22.8072 3.735C22.2669 3.95751 21.7424 4.19591 21.2179 4.45021C20.6934 4.70451 20.1848 4.9588 19.6762 5.24489C19.1676 5.51508 18.6749 5.80116 18.1822 6.10314C17.6895 6.40511 17.2127 6.70709 16.7359 7.04085C16.2591 7.35872 15.7982 7.69249 15.3373 8.04214C14.8764 8.3918 14.4314 8.74146 13.9863 9.10701C13.5413 9.47256 13.1122 9.85401 12.6831 10.2354C12.2539 10.6169 11.8407 11.0142 11.4434 11.4275C11.046 11.8248 10.6487 12.2539 10.2514 12.6672C9.86988 13.0963 9.48843 13.5254 9.12288 13.9704C8.75733 14.4154 8.40768 14.8605 8.05802 15.3214C7.70836 15.7823 7.3746 16.2432 7.05673 16.72C6.73886 17.1968 6.42099 17.6736 6.11901 18.1663C5.81703 18.659 5.53095 19.1517 5.26076 19.6603C4.99057 20.1689 4.72038 20.6775 4.46608 21.202C4.21179 21.7265 3.97338 22.2509 3.75088 22.7913C3.52837 23.3317 3.30586 23.8721 3.11514 24.4125C2.90852 24.9528 2.73369 25.5091 2.55886 26.0813C2.38403 26.6376 2.2251 27.2097 2.08206 27.7819C1.93902 28.3541 1.79597 28.9262 1.68472 29.5143C1.57346 30.1023 1.46221 30.6904 1.36685 31.2785C1.27149 31.8665 1.19202 32.4705 1.14434 33.0744C1.08077 33.6784 1.03308 34.2823 1.0013 34.8863C0.969507 35.4902 0.953613 36.1101 0.953613 36.7299C0.953613 37.3498 0.953613 37.9537 1.0013 38.5736C1.03308 39.1775 1.08077 39.7974 1.14434 40.3854C1.20791 40.9894 1.28738 41.5775 1.36685 42.1814C1.46221 42.7695 1.55757 43.3575 1.68472 43.9456C1.79597 44.5337 1.93902 45.1058 2.08206 45.678C2.2251 46.2502 2.38403 46.8064 2.55886 47.3786C2.73369 47.9349 2.92441 48.4911 3.11514 49.0474C3.32175 49.5878 3.52837 50.1441 3.75088 50.6685C3.97338 51.2089 4.21179 51.7334 4.46608 52.2579C4.72038 52.7824 4.97468 53.291 5.26076 53.7996C5.54684 54.3082 5.81703 54.8009 6.11901 55.2936C6.42099 55.7863 6.72296 56.2631 7.05673 56.7399C7.3746 57.2167 7.70836 57.6776 8.05802 58.1385C8.40768 58.5994 8.75733 59.0444 9.12288 59.4895C9.48843 59.9345 9.85399 60.3636 10.2514 60.7927C10.6328 61.2218 11.0301 61.6351 11.4434 62.0324C11.8566 62.4297 12.2698 62.8271 12.6831 63.2244C13.1122 63.6059 13.5413 63.9873 13.9863 64.3529C14.4314 64.7184 14.8764 65.0681 15.3373 65.4177C15.7982 65.7515 16.2591 66.1012 16.7359 66.419C17.2127 66.7369 17.6895 67.0548 18.1822 67.3567C18.6749 67.6587 19.1676 67.9448 19.6762 68.215C20.1848 68.4852 20.6934 68.7554 21.2179 69.0097C21.7424 69.264 22.2669 69.5024 22.8072 69.7249C23.3476 69.9474 23.888 70.1699 24.4284 70.3606C24.9688 70.5672 25.525 70.7421 26.0972 70.9169C26.6535 71.0917 27.2256 71.2506 27.7978 71.3937C28.37 71.5367 28.9421 71.6798 29.5302 71.791C30.1183 71.9023 30.7063 72.0135 31.2944 72.1089C31.8824 72.2043 32.4864 72.2678 33.0903 72.3314C33.6943 72.395 34.2982 72.4427 34.9022 72.4744C35.5062 72.5062 36.126 72.5221 36.7459 72.5221Z" stroke="#F0BC77" stroke-width="1.93901"/>
<path d="M42.1491 31.8826C40.5598 31.8826 40.4326 33.4401 40.4326 34.0123V46.2185C40.4326 47.3152 40.4326 48.539 41.9743 48.539C43.0391 48.539 43.5636 47.7602 43.5636 46.6635V33.7262C43.5636 33.0746 43.5636 31.8826 42.1332 31.8826H42.1491Z" fill="#F0BC77"/>
<path d="M36.7454 3.92578C18.6109 3.92578 3.92529 18.6273 3.92529 36.7459C3.92529 54.8645 18.6109 69.566 36.7454 69.566C54.8799 69.566 69.5655 54.8645 69.5655 36.7459C69.5655 18.6273 54.864 3.92578 36.7454 3.92578ZM25.0955 22.108C24.3962 22.108 24.3962 22.6007 24.3962 22.9503C24.3962 23.1251 24.3962 23.2523 24.4121 23.3794H23.5697C23.5697 23.141 23.5697 22.5053 23.6492 22.2192C23.9353 21.361 24.9366 21.361 25.1909 21.361C25.6041 21.361 26.0332 21.4245 26.367 21.7901C26.7325 22.1556 26.7325 22.4735 26.7325 23.2682V26.0495C26.7325 26.9555 26.7643 27.0826 27.0186 27.2892H25.8743V26.5899C25.7471 26.8442 25.461 27.3846 24.6823 27.3846C24.4121 27.3846 24.1737 27.321 23.983 27.2098C23.4267 26.876 23.379 26.3197 23.379 25.8906C23.379 24.9529 23.7445 24.6509 24.3644 24.2218C25.2544 23.6337 25.3498 23.5702 25.8266 23.1093C25.8266 22.6324 25.8266 22.0921 25.1114 22.0921L25.0955 22.108ZM20.089 51.1931C19.5169 51.2726 18.9447 51.3997 18.2136 51.3997C14.9078 51.3997 14.6694 50.1282 14.6694 47.8078V32.0573H12.7144V29.3713H14.717V24.635H17.9752V29.3713H19.8506V32.0573H17.9752V47.1561C17.9752 48.6183 18.4679 48.7932 20.1049 48.7137V51.209L20.089 51.1931ZM21.6784 19.0723H22.6161V27.3051H21.6784V19.0723ZM29.4344 32.9155C29.0212 32.6295 28.449 32.2639 27.4795 32.2639C25.1591 32.2639 25.1114 34.9976 25.1114 36.5075V51.1613H21.8532V29.2918H25.2067V31.8189C25.8107 30.5474 26.51 29.0375 28.5444 29.0375C28.8782 29.0375 29.1642 29.0693 29.4503 29.117V32.9155H29.4344ZM34.6157 51.1613H31.3575V29.3236H34.6157V51.1613ZM34.6634 26.7965H31.437V22.4258H34.6634V26.7965ZM46.9014 46.5522C46.9014 47.3628 46.9014 51.5269 42.8962 51.5269C40.6552 51.5269 40.0354 50.0647 39.7493 49.3177C39.3043 50.0964 39.2248 50.3031 39.0182 51.1613H37.1746V22.3305H40.4486V30.8176C40.7347 30.3249 41.5453 28.974 43.5955 28.974C44.8193 28.974 45.8047 29.4984 46.3292 30.3249C46.8219 31.1037 46.9014 32.0414 46.9014 32.7248V46.5204V46.5522ZM59.2189 51.1613H55.9925V49.7786C55.4203 50.5097 54.5621 51.5745 52.7661 51.5745C49.4603 51.5745 49.4603 48.5071 49.4603 47.0449V29.3395H52.7979V46.4409C52.7979 47.3786 52.7979 48.5707 54.2283 48.5707C55.9448 48.5707 55.9448 46.9813 55.9448 45.8847V29.3554H59.203V51.1931L59.2189 51.1613Z" fill="#F0BC77"/>
<path d="M24.9209 26.7171C25.0957 26.7171 25.2705 26.6535 25.4295 26.5423C25.7632 26.288 25.8109 25.8906 25.8109 25.4297V23.9834C25.5407 24.2377 25.4931 24.2695 25.048 24.6191C24.6348 24.9529 24.3169 25.1913 24.3169 25.8588C24.3169 26.1131 24.3169 26.7171 24.9527 26.7171H24.9209Z" fill="#F0BC77"/>
</g>
</svg>
