<svg width="124" height="30" viewBox="0 0 124 30" fill="none" xmlns="http://www.w3.org/2000/svg">
<g clip-path="url(#clip0_1_118)">
<mask id="mask0_1_118" style="mask-type:luminance" maskUnits="userSpaceOnUse" x="0" y="0" width="124" height="30">
<path d="M123.258 0.258789H0.353516V29.2168H123.258V0.258789Z" fill="white"/>
</mask>
<g mask="url(#mask0_1_118)">
<path d="M117.155 0.433838H121.621V9.27063H117.155V0.433838ZM109.431 4.85224L109.176 4.9476C109.176 4.9476 110.718 6.21908 110.718 6.31444C110.813 6.4098 110.893 6.4098 110.813 6.6482C110.718 6.9025 110.639 7.15679 110.639 7.15679C110.639 7.15679 112.021 6.9025 112.18 6.82303C112.355 6.82303 112.45 6.82303 112.45 6.99786C112.45 7.17269 112.355 8.619 112.355 8.619H112.784C112.784 8.619 112.689 7.09322 112.689 6.99786C112.689 6.82303 112.784 6.82303 112.959 6.82303C113.134 6.82303 114.501 7.15679 114.501 7.15679C114.501 7.15679 114.405 6.82303 114.326 6.6482C114.231 6.39391 114.326 6.39391 114.421 6.31444C114.517 6.21908 115.963 4.9476 115.963 4.9476L115.709 4.85224C115.534 4.75687 115.613 4.67741 115.613 4.59794C115.613 4.51847 115.883 3.66022 115.883 3.66022C115.883 3.66022 115.2 3.83505 115.105 3.83505C115.009 3.83505 114.93 3.83505 114.93 3.73969C114.93 3.64433 114.755 3.31056 114.755 3.31056C114.755 3.31056 113.976 4.16881 113.897 4.24828C113.722 4.42311 113.563 4.24828 113.627 4.07345C113.627 3.89862 114.056 2.11855 114.056 2.11855C114.056 2.11855 113.627 2.37285 113.452 2.45231C113.277 2.54768 113.182 2.54768 113.182 2.35695C113.086 2.18212 112.578 1.2603 112.578 1.16494C112.578 1.16494 112.069 2.18212 111.974 2.35695C111.878 2.53178 111.799 2.53178 111.703 2.45231C111.529 2.35695 111.1 2.11855 111.1 2.11855C111.1 2.11855 111.529 3.91452 111.529 4.07345C111.529 4.23239 111.433 4.32775 111.258 4.24828L110.4 3.31056C110.4 3.31056 110.305 3.56486 110.225 3.64433C110.225 3.73969 110.13 3.81916 110.051 3.73969C109.876 3.73969 109.192 3.56486 109.192 3.56486C109.192 3.56486 109.447 4.42311 109.526 4.50258C109.558 4.61383 109.558 4.77277 109.383 4.85224H109.431ZM103.677 0.433838H108.143V9.27063H103.677V0.433838Z" fill="white"/>
<path d="M122.558 26.9281C122.225 27.691 121.525 27.9453 121.096 27.9453C120.588 27.9453 119.046 27.8499 119.046 23.8607V15.2782C119.046 12.6398 116.996 10.526 111.655 10.526C105.902 10.526 105.807 13.3233 105.807 14.0067C105.711 14.7696 106.14 15.6278 107.618 15.6278C108.906 15.6278 109.255 14.1815 109.43 13.6729C109.605 13.069 109.685 11.3843 112.005 11.3843C113.976 11.3843 115.184 13.0849 115.263 15.5484V16.9947C115.088 17.8529 114.659 18.2661 113.88 18.6158C112.847 19.1244 109.844 19.5535 109.51 19.633C108.302 19.8873 104.964 20.7296 105.044 24.2262C105.139 27.6274 108.572 28.8194 110.972 28.7241C113.292 28.6287 114.675 27.7069 115.263 27.1983C115.486 27.0288 115.687 27.0606 115.867 27.2937C116.201 27.6274 117.329 28.74 119.999 28.74C122.67 28.74 123.099 27.4685 123.258 27.0394C123.321 26.7692 122.717 26.5149 122.542 26.9281H122.558ZM111.83 27.8658C109.414 27.8658 108.826 25.9109 108.826 24.8937C108.826 23.956 109.335 22.0011 111.751 20.6502C111.751 20.6502 112.863 19.9826 115.009 19.1244H115.184C115.184 19.1244 115.279 19.2198 115.279 19.2992V23.0501C115.279 25.8474 113.896 27.8817 111.83 27.8817V27.8658ZM103.931 27.7864C103.597 27.691 101.436 27.9612 101.436 21.5084V1.21241C101.436 0.958113 101.436 0.274691 100.657 0.274691C99.8783 0.274691 94.7288 0.528988 94.395 0.608455C94.0613 0.608455 93.7911 1.03758 94.395 1.03758C94.999 1.13294 97.7486 1.29188 97.7486 5.78974V11.9882C97.7486 12.163 97.7486 12.2425 97.6532 12.322V12.4173C97.5578 12.5127 97.4784 12.4173 97.2241 12.2425C96.7949 11.9087 94.8083 10.7167 92.3289 10.7167C88.2919 10.7167 83.3172 13.6093 83.3172 19.5535C83.3172 25.9268 87.8628 28.9784 92.5991 28.9784C94.9195 28.9784 96.5407 27.9612 97.1446 27.6115C97.828 27.1824 97.7486 27.2778 97.828 27.8658C97.9234 28.295 97.828 29.1373 99.0359 29.0578C100.323 28.883 103.407 28.5493 104.011 28.4539C104.615 28.1996 104.44 27.8499 103.931 27.7705V27.7864ZM93.2825 28.0248C89.5157 28.0248 87.529 23.6064 87.529 19.3628C87.529 14.6901 90.1832 11.5432 93.0123 11.718C96.7155 11.9723 97.6532 14.849 97.7327 20.0303V21.127C97.6691 26.2288 95.5235 28.0089 93.2825 28.0089V28.0248ZM83.2378 26.9281C82.904 27.691 82.2047 27.9453 81.7756 27.9453C81.267 27.9453 79.7253 27.8499 79.7253 23.8607V15.2782C79.7253 12.6398 77.6751 10.526 72.3348 10.526C66.5814 10.526 66.486 13.3233 66.486 14.0067C66.3907 14.7696 66.8198 15.6278 68.2979 15.6278C69.5853 15.6278 69.9349 14.1815 70.1097 13.6729C70.2846 13.069 70.364 11.3843 72.6845 11.3843C74.6553 11.3843 75.9427 13.0849 75.9427 15.6278V16.4861C75.8473 17.7576 75.5135 18.1867 74.4805 18.6953C73.4474 19.2039 70.4435 19.633 70.1097 19.7125C68.9018 19.9668 65.5642 20.8091 65.6437 24.3057C65.739 27.7069 69.172 28.8989 71.5719 28.8035C73.8924 28.7082 75.2751 27.7864 75.8632 27.2778C76.0857 27.1082 76.287 27.14 76.4671 27.3731C76.8009 27.7069 77.9294 28.8194 80.5995 28.8194C83.2696 28.8194 83.6987 27.548 83.8576 27.1188C83.9848 26.7692 83.4762 26.5149 83.2219 26.944L83.2378 26.9281ZM72.5891 27.8658C70.1733 27.8658 69.5853 25.9109 69.5853 24.8937C69.5853 23.956 70.0938 22.0011 72.5097 20.6502C72.5097 20.6502 73.6222 19.9826 75.7678 19.1244H75.9427V19.5535V19.4582V23.1137C75.9427 25.8315 74.5599 27.8658 72.5891 27.8658ZM64.3404 27.7864C63.657 27.6115 62.4491 26.8486 62.4491 23.1137V16.3271C62.4491 14.706 62.6239 10.5419 56.187 10.5419C52.8335 10.5419 50.9422 12.2425 50.7673 12.3379C50.513 12.5922 50.3382 12.6716 50.2587 12.2425C50.1634 11.9087 50.0044 11.3843 49.925 11.0505C49.8296 10.7962 49.6707 10.5419 49.0667 10.6214C48.4628 10.7167 44.696 11.2889 43.9967 11.4796C43.3927 11.6544 43.5676 11.9087 43.9967 11.9882C44.4258 12.0677 46.492 12.2425 46.492 15.7232V23.0342C46.492 27.2778 45.6337 27.6274 44.8549 27.8817C43.8219 28.136 44.3464 28.4857 44.7596 28.4857H52.5633C53.0719 28.4857 53.3421 27.9771 52.309 27.8182C51.2759 27.6433 50.3382 27.0553 50.3382 23.7335V19.0608C50.3382 17.2649 49.9091 11.8452 54.8838 11.7498C58.4121 11.6544 58.7459 14.5471 58.7459 16.4225V23.6382C58.7459 26.6102 57.8876 27.5321 56.8545 27.7228C55.9168 27.8976 56.0758 28.3267 56.6003 28.3267H64.5788C65.0397 28.4857 65.4688 28.0566 64.3563 27.8023L64.3404 27.7864ZM43.4722 26.9281C43.1384 27.691 42.4391 27.9453 42.01 27.9453C41.5014 27.9453 39.9597 27.8499 39.9597 23.8607V15.2782C39.9597 12.6398 37.9095 10.526 32.5693 10.526C26.8158 10.526 26.7204 13.3233 26.7204 14.0067C26.6251 14.7696 27.0542 15.6278 28.5323 15.6278C29.8197 15.6278 30.1693 14.1815 30.3442 13.6729C30.519 13.069 30.5985 11.3843 32.9189 11.3843C34.8897 11.3843 36.0976 13.0849 36.1771 15.5484V16.4861C36.1771 16.6609 36.1771 16.8198 36.0817 16.9152V17.0106C35.9069 17.8688 35.4778 18.282 34.699 18.6317C33.6659 19.1403 30.662 19.5694 30.3283 19.6489C29.1204 19.9032 25.7827 20.7455 25.8622 24.2421C25.9576 27.6433 29.3906 28.8353 31.7905 28.74C34.1109 28.6446 35.4937 27.7228 36.0817 27.2142C36.3042 27.0447 36.5056 27.0765 36.6857 27.3096C37.0194 27.6433 38.1479 28.7559 40.818 28.7559C43.4881 28.7559 43.9172 27.4844 44.0762 27.0553C44.2351 26.7851 43.6311 26.5308 43.4563 26.944L43.4722 26.9281ZM32.7441 27.8658C30.3283 27.8658 29.7402 25.9109 29.7402 24.8937C29.7402 23.8766 30.2488 22.0011 32.6646 20.6502C32.6646 20.6502 33.7772 19.9826 35.9228 19.1244H36.0976C36.0976 19.1244 36.193 19.2198 36.193 19.2992V23.1296C36.193 25.8474 34.8102 27.8817 32.7441 27.8817V27.8658ZM24.4954 20.4753C23.6371 23.1931 22.0001 27.6115 16.0877 27.7864C9.90511 27.8817 6.20192 23.7017 6.04299 15.9775C5.7728 7.74464 9.38062 1.45081 14.9592 1.29188C21.2213 1.19652 23.4623 8.60289 23.5417 9.69954C23.6371 10.5578 24.7497 10.4624 24.7497 9.60418C24.7497 9.17506 24.2411 1.87994 24.0662 1.02169C23.8914 0.163437 23.1921 0.513094 23.0173 0.846858C22.9219 1.10115 23.1126 0.592562 22.763 1.35545C22.4133 2.11834 21.4756 1.68921 21.1259 1.60975C20.1246 1.19652 18.1379 0.17933 14.9592 0.258798C7.64823 0.433627 0.178279 5.78974 0.353108 15.1351C0.527937 24.2262 7.91842 29.3121 14.7844 29.2327C21.0465 29.1373 24.5748 25.2434 25.6079 20.7455C25.9417 19.6489 24.8291 19.3787 24.4954 20.4912V20.4753Z" fill="white"/>
</g>
</g>
<defs>
<clipPath id="clip0_1_118">
<rect width="122.92" height="28.9739" fill="white" transform="translate(0.353516 0.258789)"/>
</clipPath>
</defs>
</svg>
