<svg width="343" height="48" viewBox="0 0 343 48" fill="none" xmlns="http://www.w3.org/2000/svg">
<path fill-rule="evenodd" clip-rule="evenodd" d="M0.844238 23.7457C0.844238 10.7766 11.3499 0.270996 24.319 0.270996C37.2722 0.270996 47.7937 10.7766 47.7937 23.7457C47.7937 36.7148 37.2881 47.2204 24.319 47.2204C11.3499 47.2204 0.844238 36.7148 0.844238 23.7457ZM27.6407 27.1787C27.6566 30.8342 30.6128 33.8063 34.2683 33.8063H34.2842C37.9397 33.8063 40.9118 30.8342 40.9118 27.1787C40.9118 23.5232 37.9397 20.567 34.2842 20.5511H30.9624V17.2294C30.9466 13.5739 27.9904 10.5859 24.3349 10.5859C20.6793 10.5859 17.7073 13.5739 17.7073 17.2294V20.5511H14.3855C10.7459 20.567 7.75792 23.5073 7.75792 27.1787C7.75792 30.8501 10.73 33.8063 14.3855 33.8063C18.041 33.8063 21.0131 30.8501 21.0131 27.1787V23.857H27.6407V27.1787ZM209.526 34.2513H204.79V19.5021C204.901 14.3367 209.034 10.1408 214.278 10.1408C219.523 10.1408 223.751 14.4162 223.783 19.6611V34.2513H219.031V27.6555H209.526V34.2513ZM209.526 19.677V23.2053H219.031V19.677C219.031 17.0545 216.901 14.5592 214.278 14.5592C211.656 14.5592 209.526 17.0386 209.526 19.677ZM59.9043 11.2695V34.2515L59.9202 34.2197H64.9426V26.9405H69.6947C72.2695 26.9405 74.3674 26.2094 76.0045 24.7154C77.6415 23.2373 78.4521 21.3619 78.4521 19.0414C78.4521 16.721 77.6574 14.8455 76.0839 13.4151C74.5105 11.9847 72.4284 11.2695 69.8537 11.2695H59.9043ZM64.9267 15.5131H69.361C70.5848 15.5131 71.5861 15.8627 72.3331 16.5461C73.0801 17.2296 73.4615 18.1196 73.4615 19.1845C73.4615 20.2493 73.096 21.1394 72.3331 21.8228C71.5702 22.5062 70.5848 22.8559 69.361 22.8559H64.9267V15.5131ZM81.5038 11.2695V34.2356H86.3354V11.2695H81.5038ZM107.458 17.309V34.2356H103.484L103.087 31.7085C101.688 33.6157 99.813 34.5693 97.4449 34.5693C95.0767 34.5693 93.2649 33.727 91.6755 32.0423C90.0862 30.3576 89.2756 28.2914 89.2756 25.8438C89.2756 23.3962 90.1021 21.2824 91.7391 19.5659C93.3761 17.8494 95.331 16.9911 97.6197 16.9911C99.9084 16.9911 101.768 17.8812 103.103 19.6771L103.5 17.309H107.458ZM98.4303 21.3459C97.1906 21.3459 96.1416 21.7751 95.2993 22.6333C94.4569 23.4916 94.0437 24.5405 94.0437 25.7802C94.0437 27.0199 94.4569 28.0848 95.2993 28.9271C96.1416 29.7854 97.1906 30.2145 98.4303 30.2145C99.67 30.2145 100.751 29.7854 101.593 28.9271C102.435 28.0689 102.865 27.0199 102.865 25.7802C102.865 24.5405 102.435 23.4757 101.593 22.6333C100.751 21.7751 99.7018 21.3459 98.4303 21.3459ZM165.676 34.2515V11.2854H160.924V19.264C159.652 17.7541 157.952 17.0071 155.838 17.0071C153.549 17.0071 151.594 17.8653 149.957 19.5818C148.32 21.2983 147.494 23.4122 147.494 25.8598C147.494 28.3074 148.304 30.3735 149.894 32.0582C151.483 33.743 153.295 34.5853 155.663 34.5853C158.031 34.5853 159.906 33.6317 161.305 31.7245L161.702 34.2515H165.676ZM153.517 22.6493C154.36 21.791 155.409 21.3619 156.648 21.3619C157.92 21.3619 158.969 21.791 159.811 22.6493C160.653 23.4916 161.083 24.5565 161.083 25.7962C161.083 27.0359 160.653 28.0849 159.811 28.9431C158.969 29.8014 157.888 30.2305 156.648 30.2305C155.409 30.2305 154.36 29.8014 153.517 28.9431C152.675 28.1008 152.262 27.0359 152.262 25.7962C152.262 24.5565 152.675 23.5075 153.517 22.6493ZM232.413 27.4332V34.2515H227.661V17.3249H231.888L232.158 20.5989C233.382 18.199 235.496 16.9911 238.484 16.9911L238.389 21.8545H237.403C234.081 21.8545 232.413 23.7141 232.413 27.4332ZM24.3189 13.9076C22.4753 13.9076 20.9972 15.4016 20.9972 17.2294V20.5511H27.6248V17.2453C27.6248 15.4175 26.1467 13.9235 24.303 13.9235L24.3189 13.9076ZM14.3697 30.5005C12.5419 30.5005 11.0479 29.0065 11.0479 27.1788C11.0479 25.3351 12.5419 23.857 14.3697 23.857H17.6914V27.1788C17.6914 29.0065 16.1974 30.5005 14.3697 30.5005ZM34.2682 23.857H30.9464V27.1788C30.9464 29.0065 32.4245 30.5005 34.2682 30.5005C36.1118 30.5005 37.5899 29.0065 37.5899 27.1788C37.5899 25.351 36.0959 23.857 34.2682 23.857ZM272.48 28.5299C273.291 28.5299 273.99 28.8318 274.578 29.4199C275.167 30.008 275.468 30.7073 275.468 31.5179C275.468 32.3284 275.182 33.0595 274.594 33.6317C274.022 34.2039 273.307 34.5058 272.48 34.5058C271.654 34.5058 270.939 34.2197 270.367 33.6317C269.794 33.0595 269.493 32.3443 269.493 31.5179C269.493 30.6914 269.779 29.9762 270.367 29.404C270.955 28.8318 271.654 28.5299 272.48 28.5299ZM303.711 16.9115C301.089 16.9115 298.895 17.7698 297.115 19.4704C295.351 21.171 294.461 23.2689 294.461 25.7642C294.461 28.2595 295.319 30.3256 297.036 31.9945C298.752 33.6633 300.93 34.4897 303.552 34.4897C306.175 34.4897 308.384 33.6315 310.148 31.915C311.912 30.1985 312.802 28.1005 312.802 25.6053C312.802 23.11 311.944 21.0438 310.228 19.3909C308.511 17.738 306.334 16.9115 303.711 16.9115ZM306.779 28.8475C305.936 29.7058 304.887 30.1349 303.616 30.1349C302.376 30.1349 301.327 29.7058 300.485 28.8475C299.642 28.0052 299.229 26.9403 299.229 25.7006C299.229 24.4609 299.642 23.412 300.485 22.5537C301.327 21.6955 302.344 21.2663 303.616 21.2663C304.887 21.2663 305.936 21.6955 306.779 22.5537C307.605 23.3961 308.034 24.4609 308.034 25.7006C308.034 26.9403 307.621 27.9893 306.779 28.8475ZM315.6 34.1719V17.2453H319.827L320.018 19.8041C321.226 17.881 323.022 16.9115 325.438 16.9115C326.677 16.9115 327.806 17.2135 328.791 17.8333C329.777 18.4532 330.524 19.3273 331.016 20.4558C331.541 19.3114 332.319 18.4373 333.337 17.8333C334.354 17.2135 335.498 16.9115 336.77 16.9115C338.582 16.9115 340.076 17.5314 341.252 18.7552C342.428 19.979 343 21.6637 343 23.8093V34.1719H338.248V25.351C338.248 24 337.962 22.9828 337.374 22.2994C336.801 21.616 336.039 21.2822 335.101 21.2822C334.163 21.2822 333.305 21.616 332.653 22.2676C332.002 22.9193 331.684 23.9047 331.684 25.192V34.1878H326.932V25.3669C326.932 24.0159 326.646 22.9987 326.057 22.3153C325.485 21.6319 324.722 21.2981 323.785 21.2981C322.847 21.2981 321.989 21.6319 321.337 22.2835C320.685 22.9352 320.368 23.9206 320.368 25.2079V34.2037H315.615L315.6 34.1719ZM200.117 26.0821C199.211 25.1603 197.94 24.461 196.271 23.9841V23.9683C195.047 23.6027 194.221 23.2372 193.792 22.9034C193.362 22.5696 193.156 22.1882 193.156 21.7749C193.156 21.4253 193.331 21.1233 193.68 20.869C194.03 20.6147 194.523 20.4876 195.158 20.4876C195.651 20.4876 196.144 20.5829 196.621 20.726C196.833 20.7791 197.045 20.8654 197.248 20.9479C197.288 20.9642 197.328 20.9804 197.368 20.9962C197.733 21.1551 198.099 21.3458 198.448 21.5524C198.607 21.6478 198.766 21.7591 198.925 21.8862C198.938 21.8985 198.983 21.9371 199.039 21.9843C199.128 22.059 199.242 22.1554 199.291 22.2041L201.325 19.1207C200.626 18.5009 199.72 18.0559 198.862 17.7221C197.956 17.3724 196.986 17.1499 196.017 17.0546C194.014 16.8639 191.805 17.134 190.231 18.4532C189.071 19.4227 188.499 20.6147 188.499 22.0134C188.499 23.1895 188.896 24.2225 189.691 25.0808C190.486 25.939 191.646 26.6225 193.156 27.0993C194.602 27.5443 195.572 27.9734 196.048 28.339C196.525 28.7204 196.764 29.1495 196.764 29.6263C196.764 30.0396 196.573 30.3892 196.192 30.6594C195.81 30.9296 195.286 31.0727 194.634 31.0727C193.347 31.0727 192.075 30.4846 190.963 29.8647C190.518 29.6263 190.152 29.3879 189.739 29.1019L187.752 32.1216C188.038 32.3124 188.324 32.4872 188.626 32.662C189.548 33.2024 190.533 33.7269 191.535 34.0765C192.536 34.4262 193.601 34.5851 194.666 34.5851C196.795 34.5851 198.448 34.0924 199.656 33.0911C200.864 32.0898 201.468 30.8025 201.468 29.229C201.468 28.0529 201.007 27.0039 200.117 26.0821ZM261.752 23.9841C263.421 24.461 264.693 25.1603 265.598 26.0821C266.488 27.0039 266.949 28.0529 266.949 29.229C266.949 30.8025 266.345 32.0898 265.138 33.0911C263.93 34.0924 262.277 34.5851 260.147 34.5851C259.082 34.5851 258.017 34.4262 257.016 34.0765C256.015 33.7269 255.029 33.2024 254.107 32.662C253.805 32.4872 253.519 32.3124 253.233 32.1216L255.22 29.1019C255.633 29.3879 255.999 29.6263 256.444 29.8647C257.556 30.4846 258.828 31.0727 260.115 31.0727C260.767 31.0727 261.291 30.9296 261.673 30.6594C262.054 30.3892 262.245 30.0396 262.245 29.6263C262.245 29.1495 262.007 28.7204 261.53 28.339C261.053 27.9734 260.083 27.5443 258.637 27.0993C257.127 26.6225 255.967 25.939 255.172 25.0808C254.378 24.2225 253.98 23.1895 253.98 22.0134C253.98 20.6147 254.552 19.4227 255.713 18.4532C257.286 17.134 259.495 16.8639 261.498 17.0546C262.467 17.1499 263.437 17.3724 264.343 17.7221C265.201 18.0559 266.107 18.5009 266.806 19.1207L264.772 22.2041C264.723 22.1554 264.609 22.0591 264.521 21.9845L264.52 21.9842L264.52 21.9837C264.464 21.9367 264.419 21.8985 264.406 21.8862C264.247 21.7591 264.089 21.6478 263.93 21.5524C263.58 21.3458 263.214 21.1551 262.849 20.9962C262.809 20.9804 262.77 20.9642 262.729 20.9479C262.526 20.8653 262.314 20.779 262.102 20.726C261.625 20.5829 261.132 20.4876 260.64 20.4876C260.004 20.4876 259.511 20.6147 259.162 20.869C258.812 21.1233 258.637 21.4253 258.637 21.7749C258.637 22.1882 258.844 22.5696 259.273 22.9034C259.702 23.2372 260.528 23.6027 261.752 23.9683V23.9841ZM246.018 17.3249V13.2562L246.002 13.2721H241.25V29.2132C241.25 30.9456 241.742 32.2807 242.744 33.2025C243.745 34.1402 245.001 34.6012 246.796 34.6012C248.592 34.6012 250.086 34.331 251.263 33.8065L250.706 29.8649L250.341 29.9602C249.324 30.1987 247.75 30.4688 246.844 29.9444C246.177 29.5629 246.018 28.7206 246.018 27.9895V21.2665H251.263V17.3249H246.018ZM183.588 19.391C181.951 17.8017 179.964 16.9911 177.612 16.9911C175.037 16.9911 172.86 17.8494 171.095 19.55C169.331 21.2506 168.457 23.3485 168.457 25.8438C168.457 28.3391 169.315 30.4211 171.032 32.0741C172.748 33.7429 174.926 34.5693 177.548 34.5693C179.122 34.5693 180.727 34.2833 182.141 33.5839C183.302 33.0118 184.382 32.1853 185.161 31.1522L182.332 28.4344C180.597 30.3711 178.832 30.435 177.963 30.4664L177.898 30.4688H177.866C176.626 30.4688 175.577 30.1192 174.751 29.4357C173.924 28.7523 173.416 27.8305 173.241 26.702H185.781L185.845 26.5113C185.892 26.4001 185.94 26.2094 185.972 25.9551C186.019 25.6849 186.035 25.4147 186.035 25.1286C186.035 22.9035 185.209 20.9804 183.572 19.391H183.588ZM173.352 23.7935C173.543 22.8081 174.036 22.0135 174.799 21.3936C175.562 20.7738 176.467 20.4718 177.516 20.4718C178.502 20.4718 179.36 20.7897 180.107 21.4254C180.854 22.0611 181.299 22.8399 181.458 23.7935H173.352ZM136.305 16.9911C138.657 16.9911 140.644 17.8017 142.281 19.391H142.265C143.902 20.9804 144.728 22.9035 144.728 25.1286C144.728 25.4147 144.712 25.6849 144.665 25.9551C144.633 26.2094 144.585 26.4001 144.537 26.5113L144.474 26.702H131.934C132.109 27.8305 132.617 28.7523 133.444 29.4357C134.27 30.1192 135.319 30.4688 136.559 30.4688H136.591L136.656 30.4664C137.524 30.435 139.29 30.371 141.025 28.4344L143.854 31.1522C143.075 32.1853 141.994 33.0118 140.834 33.5839C139.42 34.2833 137.814 34.5693 136.241 34.5693C133.619 34.5693 131.441 33.7429 129.725 32.0741C128.008 30.4211 127.15 28.3391 127.15 25.8438C127.15 23.3485 128.024 21.2506 129.788 19.55C131.552 17.8494 133.73 16.9911 136.305 16.9911ZM133.491 21.3936C132.729 22.0135 132.236 22.8081 132.045 23.7935H140.151C139.992 22.8399 139.547 22.0611 138.8 21.4254C138.053 20.7897 137.195 20.4718 136.209 20.4718C135.16 20.4718 134.254 20.7738 133.491 21.3936ZM122.938 28.4344C122.938 28.4344 122.7 28.7523 122.684 28.7682C121.794 29.7695 120.411 30.2781 119.076 30.1827C118.027 30.1191 117.01 29.6582 116.263 28.9112C115.421 28.053 115.007 27.004 115.007 25.7643C115.007 24.5246 115.421 23.4597 116.263 22.6174C117.201 21.6638 118.568 21.2029 119.887 21.3618C121.031 21.489 122.064 22.077 122.811 22.9512L126.053 19.7725L125.831 19.4705C125.656 19.2798 125.386 19.0414 125.004 18.7712C124.639 18.501 124.194 18.2308 123.701 17.9606C123.208 17.6904 122.589 17.4679 121.842 17.2772C121.095 17.0864 120.316 16.9752 119.473 16.9752C116.851 16.9752 114.658 17.8334 112.878 19.534C111.098 21.2347 110.223 23.3326 110.223 25.8279C110.223 28.3232 111.082 30.4052 112.798 32.0581C114.515 33.727 116.692 34.5534 119.315 34.5534C120.173 34.5534 120.983 34.4422 121.778 34.2197C122.573 33.9971 123.193 33.7587 123.685 33.4886C124.162 33.2184 124.623 32.9005 125.052 32.5349C125.481 32.1694 125.751 31.931 125.879 31.8038C125.972 31.7105 126.039 31.6258 126.1 31.5496L126.1 31.5496C126.122 31.5219 126.144 31.4954 126.165 31.4701C125.942 31.2635 123.256 28.7205 122.954 28.4185L122.938 28.4344ZM289.836 28.7682C289.852 28.7523 290.09 28.4344 290.09 28.4344L290.106 28.4185C290.408 28.7205 293.094 31.2635 293.317 31.4701C293.296 31.4954 293.274 31.5219 293.252 31.5495C293.192 31.6257 293.124 31.7105 293.031 31.8038C292.903 31.931 292.633 32.1694 292.204 32.5349C291.775 32.9005 291.314 33.2184 290.837 33.4886C290.345 33.7587 289.725 33.9971 288.93 34.2197C288.135 34.4422 287.325 34.5534 286.467 34.5534C283.844 34.5534 281.667 33.727 279.95 32.0581C278.234 30.4052 277.376 28.3232 277.376 25.8279C277.376 23.3326 278.25 21.2347 280.03 19.534C281.81 17.8334 284.003 16.9752 286.626 16.9752C287.468 16.9752 288.247 17.0864 288.994 17.2772C289.741 17.4679 290.361 17.6904 290.853 17.9606C291.346 18.2308 291.791 18.501 292.156 18.7712C292.538 19.0414 292.808 19.2798 292.983 19.4705L293.205 19.7725L289.963 22.9512C289.216 22.077 288.183 21.489 287.039 21.3618C285.72 21.2029 284.353 21.6638 283.415 22.6174C282.573 23.4597 282.159 24.5246 282.159 25.7643C282.159 27.004 282.573 28.053 283.415 28.9112C284.162 29.6582 285.179 30.1191 286.228 30.1827C287.563 30.2781 288.946 29.7695 289.836 28.7682Z" fill="white"/>
</svg>
