<svg width="168" height="40" viewBox="0 0 168 40" fill="none" xmlns="http://www.w3.org/2000/svg">
<path fill-rule="evenodd" clip-rule="evenodd" d="M15.4912 2.05905C14.7125 2.05905 13.9972 2.50407 13.441 3.37821C13.0118 4.04574 12.6781 5.1424 12.6781 6.14369C12.6781 7.49464 13.3774 8.27342 14.4423 8.27342C15.2528 8.27342 15.9045 7.8284 16.5084 6.93836C16.9216 6.30262 17.2713 5.22186 17.2713 4.18878C17.2713 2.82194 16.6197 2.04316 15.5071 2.04316L15.4912 2.05905ZM19.9414 4.31593C19.9414 5.69867 19.4646 7.06551 18.7335 8.00323C17.6845 9.37007 16.1588 10.0853 14.3469 10.0853C11.6291 10.0853 10.0557 8.54361 10.0557 6.03243C10.0557 4.66559 10.4689 3.37821 11.1364 2.48818C12.2331 1.05776 13.7271 0.32666 15.6502 0.32666C18.368 0.32666 19.9255 1.85244 19.9255 4.33183L19.9414 4.31593ZM6.63849 2.10675C7.40137 2.10675 8.11658 2.26568 8.83179 2.56766V2.55177L9.43575 0.739906C8.67286 0.469717 7.5762 0.326675 6.19347 0.326675C3.69819 0.326675 2.12473 1.62994 2.09294 3.36234C2.09294 4.39541 2.64921 5.11062 3.72997 5.55564C3.94418 5.64234 4.14407 5.71882 4.32872 5.78946C5.29489 6.15911 5.84381 6.36912 5.84381 7.04963C5.84381 7.74895 5.08092 8.22575 3.71408 8.22575C2.96708 8.22575 2.2042 8.03503 1.42541 7.65359L0.869141 9.5767C1.88633 9.92636 2.96708 10.0853 4.11142 10.0853C6.98814 10.0853 8.62518 8.70256 8.62518 6.73176C8.62518 5.47617 7.95765 4.90401 6.54312 4.25237C6.30893 4.14625 6.09327 4.0612 5.90002 3.98498L5.9 3.98497L5.89996 3.98496L5.89995 3.98495L5.89995 3.98495C5.25391 3.73016 4.85841 3.57418 4.85841 3.06036C4.85841 2.45641 5.44647 2.10675 6.63849 2.10675ZM131.037 20.7338V11.1818H147.057V20.7338H131.037ZM142.321 17.4757C142.417 17.4757 142.766 17.269 142.957 16.681H142.925C143.291 15.5525 142.146 14.4718 140.986 15.0916C140.16 15.5208 139.826 16.522 139.826 17.571H139.382C139.382 17.5644 139.381 17.5515 139.38 17.5331C139.367 17.3574 139.316 16.6786 139.46 16.1406C139.587 15.6956 139.746 15.2347 140.033 14.6625C140.287 14.1698 140.366 13.3433 139.858 12.7235C139.755 12.5985 139.661 12.4863 139.577 12.385L139.576 12.3846C139.296 12.0483 139.117 11.8333 139.031 11.6745C138.929 11.864 138.707 12.1337 138.327 12.594L138.221 12.7235C137.712 13.3433 137.807 14.1698 138.046 14.6625C138.316 15.2188 138.475 15.6956 138.602 16.1406C138.777 16.7922 138.682 17.6505 138.682 17.571H138.237C138.237 16.522 137.887 15.5366 137.076 15.0916C135.916 14.4718 134.772 15.5525 135.137 16.681C135.328 17.269 135.678 17.4757 135.773 17.4757C135.773 17.4757 135.614 16.824 136.091 16.4903C136.552 16.1883 137.124 16.3631 137.378 16.7446C137.633 17.0942 137.664 17.5869 137.664 17.5869H136.822V18.1909H138.507C138.507 18.1909 138.459 19.0332 137.537 18.9538C137.537 18.9538 137.648 19.6213 138.507 19.2716C138.507 19.2716 138.459 19.9709 139.047 20.3206C139.635 19.9709 139.587 19.2716 139.587 19.2716C140.446 19.6213 140.557 18.9538 140.557 18.9538C139.635 19.0332 139.587 18.1909 139.587 18.1909H141.272V17.5869H140.43C140.43 17.5869 140.462 17.0942 140.716 16.7446C140.986 16.3631 141.542 16.1724 142.003 16.4903C142.48 16.824 142.321 17.4757 142.321 17.4757ZM139.381 17.571C139.382 17.578 139.383 17.5777 139.382 17.571H139.381ZM85.1521 15.791C85.7878 15.791 87.0752 15.7592 87.4726 15.3778H87.552V32.9242C88.2672 33.1149 88.9983 33.258 89.7294 33.258C92.6221 33.258 94.275 31.2872 94.275 28.5535C94.275 25.8198 92.9876 23.7854 90.3334 23.7854C89.491 23.7854 88.8394 24.0079 88.1242 24.3894L89.5387 22.0213C90.1427 21.7987 90.7784 21.7193 91.3983 21.7193C94.4021 21.7193 96.9451 24.2463 96.9451 28.0449C96.9451 32.3838 93.9253 35.197 89.1414 35.197C87.5129 35.197 85.9377 34.9442 84.6833 34.743L84.6826 34.7429C84.5661 34.7242 84.4523 34.7059 84.3415 34.6884V34.6089C85.1482 34.2569 85.1428 33.4447 85.1372 32.597C85.1367 32.5261 85.1362 32.455 85.1362 32.3838V19.6213C85.1362 19.485 85.138 19.3432 85.1398 19.1978V19.1977V19.1976C85.1553 17.9691 85.174 16.4798 84.1508 15.8546V15.7751H85.1362L85.1521 15.791ZM68.162 21.6718V31.796C68.162 31.9373 68.1601 32.0756 68.1582 32.2107V32.2108V32.2109V32.211V32.211V32.2111V32.2112V32.2113V32.2114V32.2115V32.2116V32.2116C68.143 33.306 68.1308 34.1864 69.1633 34.7522V34.8316H65.7621V32.988C64.8085 34.5138 62.9013 35.1495 61.0576 35.1495C57.9425 35.1495 56.1942 33.29 56.1942 29.3802V25.1048C56.1942 24.963 56.1961 24.8246 56.198 24.6894C56.2132 23.5973 56.2254 22.7232 55.1929 22.1009V22.0215H56.1942C56.7664 22.0215 58.1491 22.0056 58.5146 21.6718H58.5941V28.9034C58.5941 31.4622 59.5477 33.0516 61.8523 33.0516C63.6006 33.0516 65.7621 31.5417 65.7621 29.3961V25.1048C65.7621 24.9635 65.764 24.8255 65.7659 24.6908L65.7659 24.6894C65.7811 23.5973 65.7933 22.7232 64.7608 22.1009V22.0215H65.7621C66.3502 22.0215 67.717 22.0056 68.0825 21.6718H68.162ZM77.1103 21.7193C80.7022 21.7193 83.1657 24.4212 83.0545 27.9972L83.0704 28.0131H73.3594C73.4071 31.4143 75.664 33.401 78.652 33.401C80.2413 33.401 81.783 32.9242 82.9909 31.9229H83.0704L81.7512 34.5295C80.6069 35.0222 79.3354 35.2129 78.0957 35.2129C73.5978 35.2129 70.4986 32.2249 70.4986 28.3628C70.4986 24.5007 73.1687 21.7193 77.1103 21.7193ZM76.8719 23.5311C75.0918 23.5311 73.7727 24.6278 73.4548 26.3761H73.4707H80.289C79.987 24.4371 78.7791 23.5311 76.8719 23.5311ZM105.305 21.7193C108.897 21.7193 111.361 24.4212 111.25 27.9972L111.265 28.0131H101.555C101.618 31.4143 103.859 33.401 106.847 33.401C108.436 33.401 109.962 32.9242 111.186 31.9229H111.265L109.946 34.5295C108.802 35.0222 107.531 35.2129 106.291 35.2129C101.793 35.2129 98.6937 32.2249 98.6937 28.3628C98.6937 24.5007 101.364 21.7193 105.305 21.7193ZM105.067 23.5311C103.287 23.5311 101.968 24.6278 101.65 26.3761H101.666H108.484C108.182 24.4371 106.974 23.5311 105.067 23.5311ZM123.074 24.9139H122.995C122.232 23.9921 120.961 23.5471 119.769 23.5471C117.21 23.5471 115.35 25.4384 115.35 28.0926C115.35 31.2872 117.909 33.401 120.849 33.401C122.2 33.401 123.678 32.8448 124.711 32.0342H124.791L123.424 34.6566C122.311 35.1017 121.104 35.2129 119.927 35.2129C115.859 35.2129 112.68 32.4315 112.68 28.8078C112.68 24.0239 116.24 21.7352 120.229 21.7352C121.183 21.7352 122.168 21.8465 123.09 22.069V24.9139H123.074ZM79.7486 16.6494V19.4308C79.7486 19.4473 79.6688 19.4639 79.5192 19.4948C78.9498 19.6128 77.3693 19.9402 75.3302 21.2744V20.1937C76.411 18.8109 78.0162 17.4123 79.7486 16.6494ZM57.9902 37.5651C55.034 38.026 52.2049 37.1359 49.2011 33.7824C52.1096 32.3679 53.9055 28.8236 53.9055 25.5337V25.1205C53.8579 19.4942 49.503 15.7751 44.3376 15.7751C39.1722 15.7751 34.5631 19.6372 34.5313 25.3112V25.6926C34.5313 31.2077 38.7431 35.3082 43.8926 35.3082C44.6396 35.3082 45.3389 35.1969 46.0541 35.038C49.4395 38.1214 52.4433 39.4246 55.0499 39.1226C56.2896 38.9796 57.5928 38.5028 58.3716 37.5174L58.0061 37.581L57.9902 37.5651ZM44.3059 33.3056C40.3166 33.3056 37.5352 28.919 37.5352 25.1999V24.7867C37.5829 21.1789 39.9828 17.7935 44.1787 17.7935C48.5812 17.7935 50.854 21.8464 50.9017 25.6926V26.09C50.9017 30.1905 48.2792 33.3056 44.3217 33.3056H44.3059ZM151.746 11.1818V20.7338H167.783V11.1818H151.746ZM163.666 16.681C163.475 17.269 163.142 17.4757 163.046 17.4757C163.046 17.4757 163.205 16.824 162.713 16.4903C162.252 16.1724 161.695 16.3631 161.425 16.7446C161.187 17.0942 161.139 17.5869 161.139 17.5869H161.982V18.1909H160.297C160.297 18.1909 160.344 19.0332 161.266 18.9538C161.266 18.9538 161.155 19.6213 160.297 19.2716C160.297 19.2716 160.344 19.9709 159.756 20.3206C159.168 19.9709 159.216 19.2716 159.216 19.2716C158.358 19.6213 158.262 18.9538 158.262 18.9538C159.184 19.0332 159.216 18.1909 159.216 18.1909H157.547V17.5869H158.39C158.39 17.5869 158.342 17.0942 158.103 16.7446C157.849 16.3631 157.277 16.1883 156.832 16.4903C156.339 16.824 156.498 17.4757 156.498 17.4757C156.403 17.4757 156.053 17.269 155.863 16.681C155.497 15.5525 156.641 14.4718 157.802 15.0916C158.628 15.5366 158.962 16.522 158.962 17.571H159.407C159.407 17.6505 159.502 16.7922 159.327 16.1406C159.2 15.6956 159.041 15.2188 158.755 14.6625C158.517 14.1698 158.421 13.3433 158.93 12.7235L159.068 12.5564C159.428 12.1189 159.643 11.8588 159.756 11.6745C159.834 11.8189 159.99 12.0099 160.223 12.2964L160.224 12.2982C160.324 12.4211 160.438 12.5616 160.567 12.7235C161.076 13.3433 160.996 14.1698 160.742 14.6625C160.472 15.2347 160.297 15.6956 160.186 16.1406C160.011 16.7922 160.122 17.6505 160.122 17.571H160.567C160.567 16.522 160.901 15.5208 161.727 15.0916C162.887 14.4718 164.032 15.5525 163.666 16.681ZM151.746 34.8314V25.2794H167.783V34.8314H151.746ZM163.046 31.5732C163.142 31.5732 163.475 31.3666 163.666 30.7786C164.032 29.6501 162.887 28.5694 161.727 29.1892C160.901 29.6183 160.567 30.6196 160.567 31.6686H160.122C160.122 31.7481 160.011 30.8898 160.186 30.2382C160.297 29.7932 160.472 29.3163 160.742 28.7601C160.996 28.2674 161.076 27.4409 160.567 26.8211C160.438 26.6584 160.323 26.5173 160.223 26.394C159.99 26.1075 159.834 25.9165 159.756 25.7721C159.643 25.9564 159.428 26.2165 159.068 26.654L158.93 26.8211C158.421 27.4409 158.517 28.2674 158.755 28.7601C159.041 29.3163 159.2 29.7932 159.327 30.2382C159.502 30.8898 159.407 31.7481 159.407 31.6686H158.962C158.962 30.6196 158.628 29.6342 157.802 29.1892C156.641 28.5694 155.497 29.6501 155.863 30.7786C156.053 31.3666 156.403 31.5732 156.498 31.5732C156.498 31.5732 156.339 30.9216 156.832 30.5878C157.277 30.2859 157.849 30.4766 158.103 30.8421C158.342 31.1918 158.39 31.6845 158.39 31.6845H157.547V32.2884H159.216C159.216 32.2884 159.184 33.1308 158.262 33.0513C158.262 33.0513 158.358 33.7189 159.216 33.3692C159.216 33.3692 159.168 34.0685 159.756 34.4182C160.344 34.0685 160.297 33.3692 160.297 33.3692C161.155 33.7189 161.266 33.0513 161.266 33.0513C160.344 33.1308 160.297 32.2884 160.297 32.2884H161.982V31.6845H161.139C161.139 31.6845 161.187 31.1918 161.425 30.8421C161.695 30.4607 162.252 30.27 162.713 30.5878C163.205 30.9216 163.046 31.5732 163.046 31.5732ZM131.037 25.2794V34.8314H147.057V25.2794H131.037ZM142.957 30.7786C142.766 31.3666 142.417 31.5732 142.321 31.5732C142.321 31.5732 142.48 30.9216 142.003 30.5878C141.542 30.27 140.986 30.4607 140.716 30.8421C140.462 31.1918 140.43 31.6845 140.43 31.6845H141.272V32.2884H139.587C139.587 32.2884 139.635 33.1308 140.557 33.0513C140.557 33.0513 140.446 33.7189 139.587 33.3692C139.587 33.3692 139.635 34.0685 139.047 34.4182C138.459 34.0685 138.507 33.3692 138.507 33.3692C137.648 33.7189 137.537 33.0513 137.537 33.0513C138.459 33.1308 138.507 32.2884 138.507 32.2884H136.822V31.6845H137.664C137.664 31.6845 137.633 31.1918 137.378 30.8421C137.124 30.4766 136.552 30.2859 136.091 30.5878C135.614 30.9216 135.773 31.5732 135.773 31.5732C135.678 31.5732 135.328 31.3666 135.137 30.7786C134.772 29.6501 135.916 28.5694 137.076 29.1892C137.887 29.6342 138.237 30.6196 138.237 31.6686H138.682C138.682 31.7481 138.777 30.8898 138.602 30.2382C138.475 29.7932 138.316 29.3163 138.046 28.7601C137.807 28.2674 137.712 27.4409 138.221 26.8211L138.327 26.6916C138.707 26.2313 138.929 25.9616 139.031 25.7721C139.117 25.9308 139.296 26.1459 139.576 26.4821L139.577 26.483C139.661 26.5841 139.755 26.6962 139.858 26.8211C140.366 27.4409 140.287 28.2674 140.033 28.7601C139.746 29.3163 139.587 29.7932 139.46 30.2382C139.316 30.7762 139.367 31.455 139.38 31.6307L139.381 31.6539L139.382 31.6686H139.381C139.382 31.6723 139.382 31.674 139.382 31.6737C139.383 31.6735 139.383 31.6717 139.382 31.6686H139.826C139.826 30.6196 140.16 29.6183 140.986 29.1892C142.146 28.5694 143.291 29.6501 142.925 30.7786H142.957ZM24.4551 8.03511H23.3744H23.3585L24.6141 2.34523H25.5836C27.1411 2.34523 27.9994 3.1558 27.9994 4.58622C27.9994 5.6034 27.5861 6.5729 26.9027 7.24043C26.3147 7.82849 25.5359 8.03511 24.4551 8.03511ZM30.6695 4.68158C30.6695 1.88432 29.0007 0.549263 25.6153 0.549263H22.389L20.3546 9.89465H24.3915C26.3941 9.89465 27.8563 9.57678 29.0166 8.59138C30.0496 7.71724 30.6695 6.30272 30.6695 4.68158ZM33.1487 0.549263L31.0825 9.87876H38.0598L38.4412 8.13047H34.0546L34.5473 5.82591H38.5525L38.918 4.15709H34.9288L35.342 2.28166H39.5697L39.967 0.549263H33.1487ZM48.7791 2.76907C48.7821 2.7708 48.785 2.77254 48.7879 2.77429L48.772 2.79018L48.7791 2.76907ZM46.4834 2.17033C47.3537 2.17033 48.1137 2.37514 48.7791 2.76907L49.4078 0.898853C48.2476 0.533303 47.1668 0.34258 46.1178 0.34258C44.1788 0.34258 42.7802 0.819386 41.6041 1.97961C40.6663 2.90144 40.0942 4.28417 40.0942 5.73048C40.0942 8.44827 41.8584 10.1171 44.9417 10.1171C45.7999 10.1171 46.6741 9.98994 47.5959 9.76743L47.8502 7.60592C47.0714 7.97147 46.2926 8.17808 45.5298 8.17808C43.8133 8.17808 42.7643 7.22447 42.7643 5.77816C42.7643 3.53718 44.1311 2.17033 46.4834 2.17033Z" fill="white"/>
</svg>
