<svg width="74" height="74" viewBox="0 0 74 74" fill="none" xmlns="http://www.w3.org/2000/svg">
<g clip-path="url(#clip0_1_24)">
<path d="M36.7461 72.5221C37.3659 72.5221 37.9699 72.5221 38.5897 72.4744C39.1937 72.4427 39.7976 72.395 40.4016 72.3314C41.0055 72.2678 41.5936 72.1884 42.1975 72.1089C42.7856 72.0135 43.3736 71.9182 43.9617 71.791C44.5498 71.6639 45.1219 71.5367 45.6941 71.3937C46.2663 71.2506 46.8384 71.0917 47.3947 70.9169C47.951 70.7421 48.5073 70.5513 49.0635 70.3606C49.6039 70.154 50.1443 69.9474 50.6847 69.7249C51.225 69.5024 51.7495 69.264 52.274 69.0097C52.7985 68.7554 53.3071 68.5011 53.8157 68.215C54.3243 67.9448 54.817 67.6587 55.3097 67.3567C55.8024 67.0548 56.2792 66.7528 56.756 66.419C57.2328 66.1012 57.6937 65.7674 58.1546 65.4177C58.6155 65.0681 59.0605 64.7184 59.5056 64.3529C59.9506 63.9873 60.3797 63.6218 60.8088 63.2244C61.238 62.843 61.6512 62.4456 62.0485 62.0324C62.4618 61.6351 62.8432 61.2059 63.2405 60.7927C63.622 60.3636 64.0034 59.9345 64.369 59.4895C64.7345 59.0444 65.0842 58.5994 65.4338 58.1385C65.7835 57.6776 66.1173 57.2167 66.4351 56.7399C66.753 56.2631 67.0709 55.7863 67.3729 55.2936C67.6748 54.8009 67.9609 54.3082 68.2311 53.7996C68.5013 53.291 68.7715 52.7824 69.0258 52.2579C69.2801 51.7334 69.5185 51.2089 69.741 50.6685C69.9635 50.1282 70.186 49.5878 70.3767 49.0474C70.5833 48.507 70.7582 47.9508 70.933 47.3786C71.1078 46.8223 71.2668 46.2502 71.4098 45.678C71.5529 45.1058 71.6959 44.5337 71.8071 43.9456C71.9184 43.3575 72.0297 42.7695 72.125 42.1814C72.2204 41.5934 72.2998 40.9894 72.3475 40.3854C72.4111 39.7815 72.4588 39.1775 72.4906 38.5736C72.5224 37.9696 72.5382 37.3498 72.5382 36.7299C72.5382 36.1101 72.5382 35.4902 72.4906 34.8863C72.4588 34.2823 72.4111 33.6784 72.3475 33.0744C72.284 32.4705 72.2204 31.8824 72.125 31.2785C72.0297 30.6904 71.9343 30.1023 71.8071 29.5143C71.68 28.9262 71.5529 28.3541 71.4098 27.7819C71.2668 27.2097 71.1078 26.6376 70.933 26.0813C70.7582 25.525 70.5674 24.9687 70.3767 24.4125C70.1701 23.8562 69.9635 23.3158 69.741 22.7913C69.5185 22.2509 69.2801 21.7265 69.0258 21.202C68.7715 20.6775 68.5172 20.1689 68.2311 19.6603C67.9609 19.1517 67.6748 18.659 67.3729 18.1663C67.0709 17.6736 66.7689 17.1968 66.4351 16.72C66.1173 16.2432 65.7835 15.7823 65.4338 15.3214C65.0842 14.8605 64.7345 14.4154 64.369 13.9704C64.0034 13.5254 63.622 13.0963 63.2405 12.6672C62.8591 12.238 62.4618 11.8248 62.0485 11.4275C61.6512 11.0142 61.238 10.6328 60.8088 10.2354C60.3797 9.85401 59.9506 9.47256 59.5056 9.10701C59.0605 8.74146 58.6155 8.3918 58.1546 8.04214C57.6937 7.70838 57.2328 7.37462 56.756 7.04085C56.2792 6.72298 55.8024 6.40511 55.3097 6.10314C54.817 5.80116 54.3243 5.51508 53.8157 5.24489C53.3071 4.9747 52.7985 4.70451 52.274 4.45021C51.7495 4.19591 51.225 3.95751 50.6847 3.735C50.1443 3.51249 49.6039 3.28998 49.0635 3.09926C48.5073 2.90854 47.9669 2.71782 47.3947 2.54299C46.8384 2.36816 46.2663 2.20923 45.6941 2.06618C45.1219 1.92314 44.5498 1.7801 43.9617 1.66885C43.3736 1.55759 42.7856 1.44634 42.1975 1.35098C41.6095 1.25561 41.0055 1.17615 40.4016 1.12847C39.7976 1.06489 39.1937 1.01721 38.5897 0.985425C37.9857 0.953638 37.3659 0.937744 36.7461 0.937744C36.1262 0.937744 35.5064 0.953638 34.9024 0.985425C34.2984 1.01721 33.6786 1.06489 33.0905 1.12847C32.4866 1.19204 31.8985 1.27151 31.2946 1.35098C30.7065 1.44634 30.1185 1.5417 29.5304 1.66885C28.9423 1.79599 28.3702 1.92314 27.798 2.06618C27.2258 2.20923 26.6696 2.36816 26.0974 2.54299C25.5411 2.71782 24.9849 2.90854 24.4286 3.09926C23.8882 3.30588 23.3319 3.51249 22.8074 3.735C22.2671 3.95751 21.7426 4.19591 21.2181 4.45021C20.6936 4.70451 20.185 4.9588 19.6764 5.24489C19.1678 5.51508 18.6751 5.80116 18.1824 6.10314C17.6897 6.40511 17.2129 6.70709 16.7361 7.04085C16.2593 7.35872 15.7984 7.69249 15.3375 8.04214C14.8766 8.3918 14.4316 8.74146 13.9865 9.10701C13.5415 9.47256 13.1124 9.85401 12.6833 10.2354C12.2541 10.6169 11.8409 11.0142 11.4436 11.4275C11.0462 11.8248 10.6489 12.2539 10.2516 12.6672C9.87012 13.0963 9.48867 13.5254 9.12312 13.9704C8.75757 14.4154 8.40792 14.8605 8.05826 15.3214C7.7086 15.7823 7.37484 16.2432 7.05697 16.72C6.7391 17.1968 6.42123 17.6736 6.11925 18.1663C5.81727 18.659 5.53119 19.1517 5.261 19.6603C4.99081 20.1689 4.72062 20.6775 4.46632 21.202C4.21203 21.7265 3.97362 22.2509 3.75112 22.7913C3.52861 23.3317 3.3061 23.8721 3.11538 24.4125C2.90876 24.9528 2.73393 25.5091 2.5591 26.0813C2.38427 26.6376 2.22534 27.2097 2.0823 27.7819C1.93926 28.3541 1.79621 28.9262 1.68496 29.5143C1.5737 30.1023 1.46245 30.6904 1.36709 31.2785C1.27173 31.8665 1.19226 32.4705 1.14458 33.0744C1.08101 33.6784 1.03332 34.2823 1.00154 34.8863C0.969751 35.4902 0.953857 36.1101 0.953857 36.7299C0.953857 37.3498 0.953857 37.9537 1.00154 38.5736C1.03332 39.1775 1.08101 39.7974 1.14458 40.3854C1.20815 40.9894 1.28762 41.5775 1.36709 42.1814C1.46245 42.7695 1.55781 43.3575 1.68496 43.9456C1.79621 44.5337 1.93926 45.1058 2.0823 45.678C2.22534 46.2502 2.38427 46.8064 2.5591 47.3786C2.73393 47.9349 2.92465 48.4911 3.11538 49.0474C3.32199 49.5878 3.52861 50.1441 3.75112 50.6685C3.97362 51.2089 4.21203 51.7334 4.46632 52.2579C4.72062 52.7824 4.97492 53.291 5.261 53.7996C5.54708 54.3082 5.81727 54.8009 6.11925 55.2936C6.42123 55.7863 6.7232 56.2631 7.05697 56.7399C7.37484 57.2167 7.7086 57.6776 8.05826 58.1385C8.40792 58.5994 8.75757 59.0444 9.12312 59.4895C9.48867 59.9345 9.85423 60.3636 10.2516 60.7927C10.633 61.2218 11.0303 61.6351 11.4436 62.0324C11.8568 62.4297 12.27 62.8271 12.6833 63.2244C13.1124 63.6059 13.5415 63.9873 13.9865 64.3529C14.4316 64.7184 14.8766 65.0681 15.3375 65.4177C15.7984 65.7515 16.2593 66.1012 16.7361 66.419C17.2129 66.7369 17.6897 67.0548 18.1824 67.3567C18.6751 67.6587 19.1678 67.9448 19.6764 68.215C20.185 68.4852 20.6936 68.7554 21.2181 69.0097C21.7426 69.264 22.2671 69.5024 22.8074 69.7249C23.3478 69.9474 23.8882 70.1699 24.4286 70.3606C24.969 70.5672 25.5252 70.7421 26.0974 70.9169C26.6537 71.0917 27.2258 71.2506 27.798 71.3937C28.3702 71.5367 28.9423 71.6798 29.5304 71.791C30.1185 71.9023 30.7065 72.0135 31.2946 72.1089C31.8826 72.2043 32.4866 72.2678 33.0905 72.3314C33.6945 72.395 34.2984 72.4427 34.9024 72.4744C35.5064 72.5062 36.1262 72.5221 36.7461 72.5221Z" stroke="white" stroke-width="1.93901"/>
<path d="M42.1496 31.8826C40.5603 31.8826 40.4331 33.4401 40.4331 34.0123V46.2185C40.4331 47.3152 40.4331 48.539 41.9748 48.539C43.0396 48.539 43.5641 47.7602 43.5641 46.6635V33.7262C43.5641 33.0746 43.5641 31.8826 42.1337 31.8826H42.1496Z" fill="white"/>
<path d="M36.7456 3.92578C18.6111 3.92578 3.92554 18.6273 3.92554 36.7459C3.92554 54.8645 18.6111 69.566 36.7456 69.566C54.8801 69.566 69.5657 54.8645 69.5657 36.7459C69.5657 18.6273 54.8642 3.92578 36.7456 3.92578ZM25.0957 22.108C24.3964 22.108 24.3964 22.6007 24.3964 22.9503C24.3964 23.1251 24.3964 23.2523 24.4123 23.3794H23.5699C23.5699 23.141 23.5699 22.5053 23.6494 22.2192C23.9355 21.361 24.9368 21.361 25.1911 21.361C25.6043 21.361 26.0334 21.4245 26.3672 21.7901C26.7327 22.1556 26.7327 22.4735 26.7327 23.2682V26.0495C26.7327 26.9555 26.7645 27.0826 27.0188 27.2892H25.8745V26.5899C25.7473 26.8442 25.4612 27.3846 24.6825 27.3846C24.4123 27.3846 24.1739 27.321 23.9832 27.2098C23.4269 26.876 23.3792 26.3197 23.3792 25.8906C23.3792 24.9529 23.7447 24.6509 24.3646 24.2218C25.2546 23.6337 25.35 23.5702 25.8268 23.1093C25.8268 22.6324 25.8268 22.0921 25.1116 22.0921L25.0957 22.108ZM20.0892 51.1931C19.5171 51.2726 18.9449 51.3997 18.2138 51.3997C14.908 51.3997 14.6696 50.1282 14.6696 47.8078V32.0573H12.7146V29.3713H14.7172V24.635H17.9754V29.3713H19.8508V32.0573H17.9754V47.1561C17.9754 48.6183 18.4681 48.7932 20.1051 48.7137V51.209L20.0892 51.1931ZM21.6786 19.0723H22.6163V27.3051H21.6786V19.0723ZM29.4346 32.9155C29.0214 32.6295 28.4492 32.2639 27.4797 32.2639C25.1593 32.2639 25.1116 34.9976 25.1116 36.5075V51.1613H21.8534V29.2918H25.2069V31.8189C25.8109 30.5474 26.5102 29.0375 28.5446 29.0375C28.8784 29.0375 29.1644 29.0693 29.4505 29.117V32.9155H29.4346ZM34.6159 51.1613H31.3577V29.3236H34.6159V51.1613ZM34.6636 26.7965H31.4372V22.4258H34.6636V26.7965ZM46.9016 46.5522C46.9016 47.3628 46.9016 51.5269 42.8964 51.5269C40.6554 51.5269 40.0356 50.0647 39.7495 49.3177C39.3045 50.0964 39.225 50.3031 39.0184 51.1613H37.1748V22.3305H40.4488V30.8176C40.7349 30.3249 41.5455 28.974 43.5957 28.974C44.8195 28.974 45.8049 29.4984 46.3294 30.3249C46.8221 31.1037 46.9016 32.0414 46.9016 32.7248V46.5204V46.5522ZM59.2191 51.1613H55.9927V49.7786C55.4205 50.5097 54.5623 51.5745 52.7663 51.5745C49.4605 51.5745 49.4605 48.5071 49.4605 47.0449V29.3395H52.7981V46.4409C52.7981 47.3786 52.7981 48.5707 54.2285 48.5707C55.945 48.5707 55.945 46.9813 55.945 45.8847V29.3554H59.2032V51.1931L59.2191 51.1613Z" fill="white"/>
<path d="M24.9211 26.7171C25.0959 26.7171 25.2707 26.6535 25.4297 26.5423C25.7634 26.288 25.8111 25.8906 25.8111 25.4297V23.9834C25.5409 24.2377 25.4933 24.2695 25.0482 24.6191C24.635 24.9529 24.3171 25.1913 24.3171 25.8588C24.3171 26.1131 24.3171 26.7171 24.9529 26.7171H24.9211Z" fill="white"/>
</g>
<defs>
<clipPath id="clip0_1_24">
<rect width="73.4916" height="73.4916" fill="white"/>
</clipPath>
</defs>
</svg>
