<?xml version="1.0" encoding="UTF-8"?>
<svg width="758px" height="357px" viewBox="0 0 758 357" version="1.1" xmlns="http://www.w3.org/2000/svg" xmlns:xlink="http://www.w3.org/1999/xlink">
    <!-- Generator: Sketch 52.4 (67378) - http://www.bohemiancoding.com/sketch -->
    <title>Combined Shape</title>
    <desc>Created with Sketch.</desc>
    <g id="Page-2" stroke="none" stroke-width="1" fill="none" fill-rule="evenodd">
        <path d="M702,357 L56,357 L55,357 C55,326.624339 30.3756612,302 9.09494702e-13,302 L9.09494702e-13,301 L8.98836561e-13,297.977578 C0.164681017,297.992419 0.331455154,298 0.5,298 C3.53756612,298 6,295.537566 6,292.5 C6,289.462434 3.53756612,287 0.5,287 C0.331455154,287 0.164681017,287.007581 -3.03923553e-14,287.022422 L8.98836561e-13,278.977578 C0.164681017,278.992419 0.331455154,279 0.5,279 C3.53756612,279 6,276.537566 6,273.5 C6,270.462434 3.53756612,268 0.5,268 C0.331455154,268 0.164681017,268.007581 7.39630579e-13,268.022422 L8.98836561e-13,259.977578 C0.164681017,259.992419 0.331455154,260 0.5,260 C3.53756612,260 6,257.537566 6,254.5 C6,251.462434 3.53756612,249 0.5,249 C0.331455154,249 0.164681017,249.007581 -3.03923553e-14,249.022422 L8.98836561e-13,240.977578 C0.164681017,240.992419 0.331455154,241 0.5,241 C3.53756612,241 6,238.537566 6,235.5 C6,232.462434 3.53756612,230 0.5,230 C0.331455154,230 0.164681017,230.007581 9.81437154e-14,230.022422 L8.98836561e-13,221.977578 C0.164681017,221.992419 0.331455154,222 0.5,222 C3.53756612,222 6,219.537566 6,216.5 C6,213.462434 3.53756612,211 0.5,211 C0.331455154,211 0.164681017,211.007581 -3.24185123e-14,211.022422 L8.98836561e-13,202.977578 C0.164681017,202.992419 0.331455154,203 0.5,203 C3.53756612,203 6,200.537566 6,197.5 C6,194.462434 3.53756612,192 0.5,192 C0.331455154,192 0.164681017,192.007581 -3.03923553e-14,192.022422 L8.98836561e-13,183.977578 C0.164681017,183.992419 0.331455154,184 0.5,184 C3.53756612,184 6,181.537566 6,178.5 C6,175.462434 3.53756612,173 0.5,173 C0.331455154,173 0.164681017,173.007581 -3.24185123e-14,173.022422 L8.98836561e-13,164.977578 C0.164681017,164.992419 0.331455154,165 0.5,165 C3.53756612,165 6,162.537566 6,159.5 C6,156.462434 3.53756612,154 0.5,154 C0.331455154,154 0.164681017,154.007581 8.98753294e-13,154.022422 L8.98836561e-13,145.977578 C0.164681017,145.992419 0.331455154,146 0.5,146 C3.53756612,146 6,143.537566 6,140.5 C6,137.462434 3.53756612,135 0.5,135 C0.331455154,135 0.164681017,135.007581 -3.03923553e-14,135.022422 L8.98836561e-13,126.977578 C0.164681017,126.992419 0.331455154,127 0.5,127 C3.53756612,127 6,124.537566 6,121.5 C6,118.462434 3.53756612,116 0.5,116 C0.331455154,116 0.164681017,116.007581 -3.03923553e-14,116.022422 L8.98836561e-13,107.977578 C0.164681017,107.992419 0.331455154,108 0.5,108 C3.53756612,108 6,105.537566 6,102.5 C6,99.4624339 3.53756612,97 0.5,97 C0.331455154,97 0.164681017,97.0075813 -3.1391556e-14,97.0224215 L8.98836561e-13,88.9775785 C0.164681017,88.9924187 0.331455154,89 0.5,89 C3.53756612,89 6,86.5375661 6,83.5 C6,80.4624339 3.53756612,78 0.5,78 C0.331455154,78 0.164681017,78.0075813 -3.24185123e-14,78.0224215 L8.98836561e-13,69.9775785 C0.164681017,69.9924187 0.331455154,70 0.5,70 C3.53756612,70 6,67.5375661 6,64.5 C6,61.4624339 3.53756612,59 0.5,59 C0.331455154,59 0.164681017,59.0075813 -3.24185123e-14,59.0224215 L8.98836561e-13,56 L9.09494702e-13,55 C30.3756612,55 55,30.3756612 55,0 L56,0 L702,0 L703,0 C703,30.3756612 727.624339,55 758,55 L758,56 L758,59.0224215 C757.835319,59.0075813 757.668545,59 757.5,59 C754.462434,59 752,61.4624339 752,64.5 C752,67.5375661 754.462434,70 757.5,70 C757.668545,70 757.835319,69.9924187 758,69.9775785 L758,78.0224215 C757.835319,78.0075813 757.668545,78 757.5,78 C754.462434,78 752,80.4624339 752,83.5 C752,86.5375661 754.462434,89 757.5,89 C757.668545,89 757.835319,88.9924187 758,88.9775785 L758,97.0224215 C757.835319,97.0075813 757.668545,97 757.5,97 C754.462434,97 752,99.4624339 752,102.5 C752,105.537566 754.462434,108 757.5,108 C757.668545,108 757.835319,107.992419 758,107.977578 L758,116.022422 C757.835319,116.007581 757.668545,116 757.5,116 C754.462434,116 752,118.462434 752,121.5 C752,124.537566 754.462434,127 757.5,127 C757.668545,127 757.835319,126.992419 758,126.977578 L758,135.022422 C757.835319,135.007581 757.668545,135 757.5,135 C754.462434,135 752,137.462434 752,140.5 C752,143.537566 754.462434,146 757.5,146 C757.668545,146 757.835319,145.992419 758,145.977578 L758,154.022422 C757.835319,154.007581 757.668545,154 757.5,154 C754.462434,154 752,156.462434 752,159.5 C752,162.537566 754.462434,165 757.5,165 C757.668545,165 757.835319,164.992419 758,164.977578 L758,173.022422 C757.835319,173.007581 757.668545,173 757.5,173 C754.462434,173 752,175.462434 752,178.5 C752,181.537566 754.462434,184 757.5,184 C757.668545,184 757.835319,183.992419 758,183.977578 L758,192.022422 C757.835319,192.007581 757.668545,192 757.5,192 C754.462434,192 752,194.462434 752,197.5 C752,200.537566 754.462434,203 757.5,203 C757.668545,203 757.835319,202.992419 758,202.977578 L758,211.022422 C757.835319,211.007581 757.668545,211 757.5,211 C754.462434,211 752,213.462434 752,216.5 C752,219.537566 754.462434,222 757.5,222 C757.668545,222 757.835319,221.992419 758,221.977578 L758,230.022422 C757.835319,230.007581 757.668545,230 757.5,230 C754.462434,230 752,232.462434 752,235.5 C752,238.537566 754.462434,241 757.5,241 C757.668545,241 757.835319,240.992419 758,240.977578 L758,249.022422 C757.835319,249.007581 757.668545,249 757.5,249 C754.462434,249 752,251.462434 752,254.5 C752,257.537566 754.462434,260 757.5,260 C757.668545,260 757.835319,259.992419 758,259.977578 L758,268.022422 C757.835319,268.007581 757.668545,268 757.5,268 C754.462434,268 752,270.462434 752,273.5 C752,276.537566 754.462434,279 757.5,279 C757.668545,279 757.835319,278.992419 758,278.977578 L758,287.022422 C757.835319,287.007581 757.668545,287 757.5,287 C754.462434,287 752,289.462434 752,292.5 C752,295.537566 754.462434,298 757.5,298 C757.668545,298 757.835319,297.992419 758,297.977578 L758,301 L758,302 C727.624339,302 703,326.624339 703,357 L702,357 Z" id="Combined-Shape" fill="#50E3C2"></path>
    </g>
</svg>